<mxfile host="app.diagrams.net" modified="2021-03-08T01:08:41.299Z" agent="5.0 (Windows NT 10.0; Win64; x64) AppleWebKit/537.36 (KHTML, like Gecko) Chrome/89.0.4389.82 Safari/537.36" etag="wN7VYvkqSDsz26G-VeTT" version="14.4.4" type="github">
  <diagram name="Page-1" id="822b0af5-4adb-64df-f703-e8dfc1f81529">
    <mxGraphModel dx="1422" dy="762" grid="1" gridSize="10" guides="1" tooltips="1" connect="1" arrows="1" fold="1" page="1" pageScale="1" pageWidth="1100" pageHeight="850" background="#ffffff" math="0" shadow="0">
      <root>
        <mxCell id="0" />
        <mxCell id="1" parent="0" />
        <mxCell id="PFUlSl_77ustU3yYr6jG-1" value="" style="outlineConnect=0;dashed=0;verticalLabelPosition=bottom;verticalAlign=top;align=center;html=1;shape=mxgraph.aws3.ec2;fillColor=#F58534;gradientColor=none;" vertex="1" parent="1">
          <mxGeometry x="735.26" y="470" width="76.5" height="93" as="geometry" />
        </mxCell>
        <mxCell id="PFUlSl_77ustU3yYr6jG-2" value="" style="pointerEvents=1;shadow=0;dashed=0;html=1;strokeColor=none;fillColor=#DF8C42;labelPosition=center;verticalLabelPosition=bottom;verticalAlign=top;align=center;outlineConnect=0;shape=mxgraph.veeam2.aws_s3;" vertex="1" parent="1">
          <mxGeometry x="648.45" y="720" width="40" height="40" as="geometry" />
        </mxCell>
        <mxCell id="PFUlSl_77ustU3yYr6jG-3" value="" style="points=[[0,0,0],[0.25,0,0],[0.5,0,0],[0.75,0,0],[1,0,0],[0,1,0],[0.25,1,0],[0.5,1,0],[0.75,1,0],[1,1,0],[0,0.25,0],[0,0.5,0],[0,0.75,0],[1,0.25,0],[1,0.5,0],[1,0.75,0]];outlineConnect=0;fontColor=#232F3E;gradientColor=#F78E04;gradientDirection=north;fillColor=#D05C17;strokeColor=#ffffff;dashed=0;verticalLabelPosition=bottom;verticalAlign=top;align=center;html=1;fontSize=12;fontStyle=0;aspect=fixed;shape=mxgraph.aws4.resourceIcon;resIcon=mxgraph.aws4.eks;" vertex="1" parent="1">
          <mxGeometry x="441" y="200" width="78" height="78" as="geometry" />
        </mxCell>
        <mxCell id="PFUlSl_77ustU3yYr6jG-4" value="" style="outlineConnect=0;dashed=0;verticalLabelPosition=bottom;verticalAlign=top;align=center;html=1;shape=mxgraph.aws3.ec2_compute_container_2;fillColor=#F58534;gradientColor=none;" vertex="1" parent="1">
          <mxGeometry x="370" y="360" width="60" height="34.5" as="geometry" />
        </mxCell>
        <mxCell id="PFUlSl_77ustU3yYr6jG-5" value="" style="outlineConnect=0;dashed=0;verticalLabelPosition=bottom;verticalAlign=top;align=center;html=1;shape=mxgraph.aws3.efs_share;fillColor=#E05243;gradientColor=none;" vertex="1" parent="1">
          <mxGeometry x="445.5" y="460" width="69" height="63" as="geometry" />
        </mxCell>
        <mxCell id="PFUlSl_77ustU3yYr6jG-6" value="" style="outlineConnect=0;dashed=0;verticalLabelPosition=bottom;verticalAlign=top;align=center;html=1;shape=mxgraph.aws3.ec2_compute_container_2;fillColor=#F58534;gradientColor=none;" vertex="1" parent="1">
          <mxGeometry x="450" y="360" width="60" height="34.5" as="geometry" />
        </mxCell>
        <mxCell id="PFUlSl_77ustU3yYr6jG-7" value="" style="outlineConnect=0;dashed=0;verticalLabelPosition=bottom;verticalAlign=top;align=center;html=1;shape=mxgraph.aws3.ec2_compute_container_2;fillColor=#F58534;gradientColor=none;" vertex="1" parent="1">
          <mxGeometry x="530" y="360" width="60" height="34.5" as="geometry" />
        </mxCell>
        <mxCell id="PFUlSl_77ustU3yYr6jG-8" value="" style="endArrow=none;html=1;exitX=0.89;exitY=1;exitDx=0;exitDy=0;exitPerimeter=0;" edge="1" parent="1" source="PFUlSl_77ustU3yYr6jG-5" target="PFUlSl_77ustU3yYr6jG-1">
          <mxGeometry width="50" height="50" relative="1" as="geometry">
            <mxPoint x="700" y="420" as="sourcePoint" />
            <mxPoint x="750" y="370" as="targetPoint" />
          </mxGeometry>
        </mxCell>
        <mxCell id="PFUlSl_77ustU3yYr6jG-9" value="" style="endArrow=none;html=1;exitX=0.5;exitY=0;exitDx=0;exitDy=0;exitPerimeter=0;entryX=0.5;entryY=1;entryDx=0;entryDy=0;entryPerimeter=0;" edge="1" parent="1" source="PFUlSl_77ustU3yYr6jG-4" target="PFUlSl_77ustU3yYr6jG-3">
          <mxGeometry width="50" height="50" relative="1" as="geometry">
            <mxPoint x="440" y="320" as="sourcePoint" />
            <mxPoint x="490" y="270" as="targetPoint" />
          </mxGeometry>
        </mxCell>
        <mxCell id="PFUlSl_77ustU3yYr6jG-10" value="" style="endArrow=none;html=1;entryX=0.5;entryY=1;entryDx=0;entryDy=0;entryPerimeter=0;exitX=0.5;exitY=0;exitDx=0;exitDy=0;exitPerimeter=0;" edge="1" parent="1" source="PFUlSl_77ustU3yYr6jG-6" target="PFUlSl_77ustU3yYr6jG-3">
          <mxGeometry width="50" height="50" relative="1" as="geometry">
            <mxPoint x="260" y="450" as="sourcePoint" />
            <mxPoint x="310" y="400" as="targetPoint" />
          </mxGeometry>
        </mxCell>
        <mxCell id="PFUlSl_77ustU3yYr6jG-11" value="" style="endArrow=none;html=1;entryX=0.5;entryY=1;entryDx=0;entryDy=0;entryPerimeter=0;exitX=0.5;exitY=0;exitDx=0;exitDy=0;exitPerimeter=0;" edge="1" parent="1" source="PFUlSl_77ustU3yYr6jG-7" target="PFUlSl_77ustU3yYr6jG-3">
          <mxGeometry width="50" height="50" relative="1" as="geometry">
            <mxPoint x="160" y="410" as="sourcePoint" />
            <mxPoint x="210" y="360" as="targetPoint" />
          </mxGeometry>
        </mxCell>
        <mxCell id="PFUlSl_77ustU3yYr6jG-12" value="" style="endArrow=none;html=1;entryX=0.5;entryY=1;entryDx=0;entryDy=0;entryPerimeter=0;" edge="1" parent="1" source="PFUlSl_77ustU3yYr6jG-5" target="PFUlSl_77ustU3yYr6jG-6">
          <mxGeometry width="50" height="50" relative="1" as="geometry">
            <mxPoint x="240" y="490" as="sourcePoint" />
            <mxPoint x="290" y="440" as="targetPoint" />
          </mxGeometry>
        </mxCell>
        <mxCell id="PFUlSl_77ustU3yYr6jG-13" value="" style="endArrow=none;html=1;entryX=0.5;entryY=1;entryDx=0;entryDy=0;entryPerimeter=0;exitX=0.945;exitY=0.065;exitDx=0;exitDy=0;exitPerimeter=0;" edge="1" parent="1" source="PFUlSl_77ustU3yYr6jG-5" target="PFUlSl_77ustU3yYr6jG-7">
          <mxGeometry width="50" height="50" relative="1" as="geometry">
            <mxPoint x="80" y="570" as="sourcePoint" />
            <mxPoint x="130" y="520" as="targetPoint" />
          </mxGeometry>
        </mxCell>
        <mxCell id="PFUlSl_77ustU3yYr6jG-14" value="" style="endArrow=none;html=1;entryX=0.5;entryY=1;entryDx=0;entryDy=0;entryPerimeter=0;" edge="1" parent="1" source="PFUlSl_77ustU3yYr6jG-5" target="PFUlSl_77ustU3yYr6jG-4">
          <mxGeometry width="50" height="50" relative="1" as="geometry">
            <mxPoint x="180" y="550" as="sourcePoint" />
            <mxPoint x="230" y="500" as="targetPoint" />
          </mxGeometry>
        </mxCell>
        <mxCell id="PFUlSl_77ustU3yYr6jG-15" value="" style="outlineConnect=0;dashed=0;verticalLabelPosition=bottom;verticalAlign=top;align=center;html=1;shape=mxgraph.aws3.rds;fillColor=#2E73B8;gradientColor=none;" vertex="1" parent="1">
          <mxGeometry x="250" y="460" width="70" height="68" as="geometry" />
        </mxCell>
        <mxCell id="PFUlSl_77ustU3yYr6jG-17" value="" style="endArrow=none;html=1;entryX=0.5;entryY=1;entryDx=0;entryDy=0;entryPerimeter=0;exitX=1;exitY=0.78;exitDx=0;exitDy=0;exitPerimeter=0;" edge="1" parent="1" source="PFUlSl_77ustU3yYr6jG-15" target="PFUlSl_77ustU3yYr6jG-7">
          <mxGeometry width="50" height="50" relative="1" as="geometry">
            <mxPoint x="50" y="360" as="sourcePoint" />
            <mxPoint x="100" y="310" as="targetPoint" />
          </mxGeometry>
        </mxCell>
        <mxCell id="PFUlSl_77ustU3yYr6jG-18" value="" style="endArrow=none;html=1;exitX=1;exitY=0.22;exitDx=0;exitDy=0;exitPerimeter=0;" edge="1" parent="1" source="PFUlSl_77ustU3yYr6jG-15">
          <mxGeometry width="50" height="50" relative="1" as="geometry">
            <mxPoint x="350" y="442" as="sourcePoint" />
            <mxPoint x="400" y="392" as="targetPoint" />
          </mxGeometry>
        </mxCell>
        <mxCell id="PFUlSl_77ustU3yYr6jG-19" value="" style="endArrow=none;html=1;entryX=0.5;entryY=1;entryDx=0;entryDy=0;entryPerimeter=0;exitX=1;exitY=0.5;exitDx=0;exitDy=0;exitPerimeter=0;" edge="1" parent="1" source="PFUlSl_77ustU3yYr6jG-15" target="PFUlSl_77ustU3yYr6jG-6">
          <mxGeometry width="50" height="50" relative="1" as="geometry">
            <mxPoint x="110" y="540" as="sourcePoint" />
            <mxPoint x="160" y="490" as="targetPoint" />
          </mxGeometry>
        </mxCell>
        <mxCell id="PFUlSl_77ustU3yYr6jG-20" value="" style="shape=image;html=1;verticalAlign=top;verticalLabelPosition=bottom;labelBackgroundColor=#ffffff;imageAspect=0;aspect=fixed;image=https://cdn2.iconfinder.com/data/icons/amazon-aws-stencils/100/Database_copy_Amazon_RDS_MySQL_DB_Instance-128.png" vertex="1" parent="1">
          <mxGeometry x="245" y="520" width="80" height="80" as="geometry" />
        </mxCell>
        <mxCell id="PFUlSl_77ustU3yYr6jG-21" value="" style="shape=image;verticalLabelPosition=bottom;labelBackgroundColor=#ffffff;verticalAlign=top;aspect=fixed;imageAspect=0;image=data:image/png,iVBORw0KGgoAAAANSUhEUgAAAWAAAAFHCAYAAACfyJbCAAAgAElEQVR4Ae2dB5hV5ZnHsy3bW7Lp2TXJbnaTjZvdbHbd3ewmaiT2EhvSq6KIIETBLpZYsRdQrLGCgggqKBoROyJSVECFabQZBoahDNN59/l94zceLrecmdvOufM/z3Pm3Ln3nK/8v+/8znver32uubnZWltbtUsD1QHVAdWBAtYB2Ps54KtNCkgBKSAFCqsA7BWAC6u5YpMCUkAKOAUEYFUEKSAFpECRFBCAiyS8opUCUkAKCMCqA1JACkiBIikgABdJeEUrBaSAFBCAVQekgBSQAkVSQAAukvCKVgpIASkgAKsOSAEpIAWKpIAAXCThFa0UkAJSQABWHZACUkAKFEkBAbhIwitaKSAFpIAArDogBaSAFCiSAgJwkYRXtFJACkgBAVh1QApIASlQJAUE4CIJr2ilgBSQAgKw6oAUkAJSoEgKCMBFEl7RSgEpIAUEYNUBKSAFpECRFBCAiyS8opUCUkAKCMCqA1JACkiBIikgABdJeEUrBaSAFBCAVQekgBSQAkVSQAAukvCKVgpIASkgAKsOSAEpIAWKpIAAXCThFa0UkAJSQACOQB1oamq3srImq61ttZaWPbZnTwQSpSRIASmQdwUE4LxLnDmCbXWt9uD9W+zuKZvt3XcarLVVEM6sms6QAvFXQACOQBnWbW21myZV25CB5TbhV+vsoQe32OpVjdbassfa2yOQQCVBCkiBvCggAOdF1q4FCoBvvL7a+p9SZn1OWmuD+5fbBRPW25yn662mptXa22QRd01RnS0F4qGAAByBcgoC+JQT1zoI9+tdZsOHlNtll2ywN1/fabt2tjtrWP7hCBSYkiAFcqSAAJwjIbMJJhHAQNjvgHjYoHK77ZYaq6xodo10bbKIs5Fb10qByCggAEegKNIBGJdE35PXOvfE6JGVNuOJOtu0scWam+WWiEDRKQlSICsFBOCs5MvNxekA7C1h75oY2LfMuSUWvrLD+YfptqaGutyUg0KRAoVWQAAutOJJ4gsLYA9hbxHfelONLXm3wbZubU0Sqr6SAlIg6goIwBEooa4A2FvEuCboNTFmVJXrtvb+it22fXubGuoiUJ5KghQIq4AAHFapPJ7XHQB7EHMc1K/MdVvDP1xZ2dFQl8fkKmgpIAVypIAAnCMhswkmWwC7hrrea23EsAq7fOIGm/dcvdXXt1mbRtRlUyy6VgrkXQEBOO8SZ44gWwAHrWFgPPK0Sjew493Fu9ywZhrp1H84cznoDClQaAUE4EIrniS+XAIYGNNIR2+JkadVuPkl1q5p0iQ/SXTXV1Kg2AoIwMUuATPLNYC9Rewb6s46o9KembPNuSWY6EcWcQQKXUmQAmYmAEegGuQLwIDY+4exiC+5YL0tenuX7dje5lwTEci6kiAFerQCAnAEij+fAA5aw7gmzjgVt0StffB+R7c1DWuOQAVQEnqsAgJwBIq+EABOBPGvzq6yaY9tNecf1rDmCNQCJaEnKiAAR6DUCwlgD2Ks4QF9yuyKiRtdt7WqymY3/7B6S0SgQigJPUYBATgCRV0MAHsQcxw6sNx1W3tt4U6rq2tTl7UI1AkloWcoIABHoJyLDWDfbW3sWVU25Y7N9t6SBtu5s93wD2uTAlIgfwoIwPnTNnTIxQawt4bpMUFvCfzDjzy0xU17CYTVbS10UepEKdAlBQTgLsmVn5OjAmBADIT79e5wS5x37jqbN7fedjd0WMPyD+en/BVqz1VAAI5A2UcJwN4a5uhdE7++fKMx2xpzD6vbWgQqjJJQMgoIwBEoyqgCGGu4wyIucys23zu11taubbLGxnY11EWg3igJ8VdAAI5AGUYVwEFrGBAz//C4MVU299l6W7++xXbv7lgoNAISKglSIJYKCMARKLY4ANj7hwHx4P7ldtWVG23ByzusurpFvSUiUIeUhHgqIABHoNziAuCgRYw1zCQ/d95eY4ve2uVW45B/OAKVSUmIlQICcASKK44A9jDue9Ja123tgftqbeWHjVogNAL1SUmIjwICcATKKs4AxiVBbwmWRbryso1WvalFDXQRqFNKQjwUEIAjUE5xBrC3hDmeNrTC1nzSJCs4AnVKSYiHAgJwBMqp1AHMAA4N4ohARUuTBJVPGnHy+JMAnEdxwwZdygDmxq6qarZdu9o716cLq4vOy68C7Xs6Bta0tLbbrl0ttnNnS34jVOj7KCAA7yNJ4b8odQDPnLHN7rh1s638YLft2KHZ1gpfw/aNkQdjY2OrlVdst7vvfd8m3bzEamt373uivsmrAgJwXuUNF3ipA/jJ6XV26tAKGz643B56YIuVlzW7ZZHa2/bINRGuiuTsrPb2PdbY2GZV63bYrNlr7LQzf2uHH/O0XTTxTavZ3JCzeBRQOAUE4HA65fWsUgfwE9PqbNigctdbgv7D48ets6dnbrPKymZramrPq7YK/DMFsHqrqxts/ktVdv5Fb9jPD3vKDvrFTDvk8KfswkvetJoaAfgztQrzSQAujM5pY+kJAB46qNzNK+G7rQ0fUm7XXb3J5r+w3TZtanET/aghKG016daPez71827d2mhvvr3Jbrz5PTuh93MOvgf2mmE/O2SG+ywAd0verC8SgLOWMPsAehKAg93W+DxyRKXdfkuNvf3WLje3hCCcfX0KhtDU1GYrV221u6ausMHD51uvI2Y56AJev2MJC8BB1Qr3WQAunNYpY+rJAPZTXp4zdp3df2+trVrZ6KxhJoHX1j0FsHpbW9ttU/Uue/Tx1Xbm6AV2zPFznLvBW70evrKAu6dxrq4SgHOlZBbh9GQAe4vYT/Jz7rh1NuPJOttc0zHJDxaxrOJwlcu7G5qb2+2ll6ts7LkL7biTnrFk0BWAw2ma77ME4HwrHCJ8AXitAWIg3K93mQ0bXG6sxrHwlR3OLaG16TJXIuDb3Nxmy1bU2mVXvu3AS+MajWxB2Cb7LBdEZn3zdYYAnC9luxCuANwB4KA1jGuChrubbqixjz9q0mocSeoTbwZ0K2tpwd3QYPc9+KGdeMreDWzJgJv4nQCcRNwCfSUAF0jodNEIwHsD2IMYCGMRjz6z0h57ZKtVuW5r6jvs6xLgrd2y256fX2HDRrzkupNh8WZyOQjAXsHiHwXg4peBCcDJARwEMf2HJ160wV56cYdt3NDSOay5p/mHfQMb4F30TrVd/utFaRvYEmGb7H9ZwMWDgABcPO07YxaA0wPYgxgfMSC+8fpqW7K4wbZsae1RDXQ8bBoaWmz5+7V22x3L7JT+81L2bEgG2lTfCcCdt2LBPwjABZd83wgF4HAABsQewqzGcd/UWlv6XoPV17eV7LJIQT/v6o/q7MGHV9oZZ71svUI2sKWCbvB7AXjfe7JQ3wjAhVI6TTwCcHgAe2uYI9YwvSUef2SrrV3T5NwSaWSO5U80stHANufZMht/wev2iyP3HUgRhGl3PgvAxasaAnDxtO+MWQDuHoA7uq2ttVOHVNjll26wOU9vs9raVgfiuPuG6Xq3bVuTLVi43vl5e/eba72OeMoO6pW5W1lXISwAd96KBf8gABdc8n0jFIC7B+CgNUyPidOGVdikaze5RUKbmva4lTniBGLvbmAgxcefbLObbl1qfQbMc70butqzoSsQFoD3vScL9Y0AXCil08QjAGcPYKzhPievtYF9y2zEsAq78/bNVra2OTbDmoEvw4eZGP03D69y4D386Kft4ENn2oGBeRu6Ataw5wrAaW7OPP8kAOdZ4DDBC8DZAzhoDfuGOuYffnrWNjf3cGtrh0UcpjwKdY63eAEvk+YsfHW9nTbyt539ecMCNNvzBOBClfi+8QjA+2pS8G8E4NwCGBgDYdwSA/qW2YXnr7fXXt1p27Z19JaIiluCBjaWAVq6bLNdcfUiO8xbvL3yb/UGoS0AF/yW74xQAO6UongfBODcAzhoETOa7vThuCVqXLc1QIxFXAwQEycNbLgaPvp4mz3w0ErrM3Dep/Pz5r6BLQjaVJ8F4OLd+wJw8bTvjFkAzi+Agxbx2WdV2SMPbe2c9rKzEArwAfjibqisZDmgtXbmmAWfNrB1ffhwKph253sBuACFnyIKATiFMIX8WgDOP4A9hHFN4JaYePEGe+6Zeqsob+4c1pyvMvfgrdm82+a/WGmXXv6WHd/7WdfA1h1g5voaAThfJZ85XAE4s0Z5P0MALgyAg24JQDx0YLlde9UmW/DyDtd/GFCy53IjPCbNeXvRJrvq2sWud8OBeejLmw2UBeBclnjXwhKAu6ZXXs4WgAsPYG8RM5pu9MhKu/XmGlv8zi7bubM9J/2H/TSRK1fV2eS7V9jw07s/W1k2cA1zrQCcl9s6VKACcCiZ8ntSXV2r3TSp2vVhxTILWmpx+nza0Apb80mTA5hXDAuQVZH9opxRzQ/9h8eOrrL779li69d1rMbBskhdtYj9qhTVNQ02Y9YnNursBW7Z96hZvUEwC8C+thb+KAAXXvN9YqRFfvmy3Xb1lRttyICO5dujCqp06YozgH23NfSfcM46e2b2to5uayF7SwBq161sV4u9/sYGO/e81+zoX87pbGQLAi9qnwXgfW7Jgn0hABdM6tQRddy8Zo2N7Tbvue1uboMBfcqsX++O/qzpoBel3+IM4KCOwBiL+IqJG92Dsblpj7UB4iQLhVJ2dCtjOaCamga7/sZ37dCjZtnPD30q41JAUQGxAJz63sz3LwJwvhUOGb6HMNbw5ppWe+iBLXbmiEoHgiAcovy5VACMxkCY/sM8CO+6c7OVrWmyXbvwSXxWoJQZ4K2ubnCrDzM/LzDrzqoUxYSxAPxZmRb6kwBcaMUzxedeZc0ad7fbe0sa7Laba4y5b7HIou4fLiUA+wcdmgPhcaOr7NVXdu7lE8bfW1a+3SYwTeQRs0ItgFlM0KaKWwDOdFPm73cBOH/aZhUy1hU7o7ZefmmHXXf1Jhs2qDzSEC5FAANihjSj/RPT6/YCMD7fVavr7LgTMy/9ngp+UfheAM7qVs3qYgE4K/nyfzEt8S0te6yyotlmPFHnBhAMjmhDXakCGCuYXhz05uCh6DcP4GNPeCY2/t5kwBeAfYkW/igAF17zbsXIjU8j3aqVjfbwg1tszKhKZ5n5V+UoHAXgGbEEsQDcrVsyJxcJwDmRsTCBAGFa3Bm4sWL5bptyx2YDejQWCcD56z8tC7gw9bsnxiIAx7TUcU1sqW21t97Y6bpLAWF8lcVsqJMFLAs4prdT0ZItABdN+uwixhoGws3Ne2zTxhabM7vefnX2Out3SgeIi2ERC8ACcHa1uuddLQCXQJkDYvoPl61tssl3bHZL8jDHARZxIUEsAAvAJXA7FTQLAnBB5c5fZN4/TI8JJpW5fOIGO3VIufUt4NwSArAAnL8aXpohC8AlVq6AGGuY/sPPPlNvF4xf70CMjzjf/mEBWAAusdsp79kRgPMuceEjAMLOR9y2xyrKm2zaY1vdBDOMpsunS0IAFoALX9vjHaMAHO/yS5t675ZgDgOGNd9/T62dParK8A/nwxoWgAXgtBVSP+6jgAC8jySl+QUwrt/WZq8u3Gk3Xl9tLNmea2tYABaAS/PuyV+uBOD8aRutkD91SzQ17rF165rt+bn1blgzbolc9ZYQgAXgaFX66KdGAI5+GeU8hVjDu3e32/p1zTb9sTo749RKN5ouW7eEACwA57yylniAAnCJF3Cq7Hn/cENDu1VVNtsdt9bYoH7ZjaYTgAXgVPVN3ydXQABOrkuP+pZZvWioe/vNnXbpRRsciLvTbU0AFoB71I2Tg8wKwDkQMe5BYA370XSbN7farJnb7Lxz19ng/l3rtiYAC8BxvxcKnX4BuNCKRzg+QMzOaLrVqxpt6pTNNm5MlVsRIkxDnQAsAEe4ekcyaQJwJIul+IkCxMw//M6iXXbDddVufbpMjXQCsABc/JobrxQIwPEqr4KmFggzrLmmpsVenL/drrlqk5t/ONW0lwKwAFzQCloCkQnAJVCIhcgCIC4vb7Y5szv8w4ymSxzIIQALwIWoi6UUhwBcSqWZx7xgDbe3dfSW+PCD3fbwb7ba6DP3HtYsAAvAeayCJRm0AFySxZrfTNFjgtnWFr/TYDdOqrYhA8rdQI4RwypszSdNrkeFTwHgZjFLFrXM5ENOtKij8j/p1qKcvkR1zKUCAnAu1exBYfnVOLZvb7NXFuyw8ePWuYa6tWsE4GQrD0f5Oy3KWbwbVwAunvYlETMWblvrHmNE3TOz662ivHmvpdtlAUffLSEAF+9WFICLp33JxOz8w+0dgzn4HNwEYAE4WB/0eW8FBOC99dB/OVZAABaAc1ylSio4AbikijN6mRGAow/gQw5/yi6e+KbV1DRErwKVeIoE4BIv4GJnDwCvWL7bJt++2TXS5Ws1jnz2mCjFXhAH9pphBx860444Zrade/5rNvf5ctu5q6XY1aXHxS8A97giL3yGgXBNdau9tnCnXX3lRuvXe22suqSVGoCB70G/mGmDh8+3ex/4wFauqrPm5rbCVwzFaAKwKkHeFQDAdFtjkh96SdBb4sLz1ru16cJM8pNP6zZM2KUEYHo8nNRnrt1821JbvqLW6rY1WWtb+149V/JeIRRBpwICcKcU+lAIBYDx7oZ2+2h1oz1w3xY78/TcrMYRBqTdPSfuAPYWL77eCRe+bosWV9uWrY3GPNDaiquAAFxc/Xtk7ECYuSWYBH75st123TXVNnRguVubDth1F5T5ui7OAMbVAHiHn/6SzXm2zKprGqy5ud3Bl3LQVlwFBODi6t8jYm9r2+NcEMlueH5jfbqX5m+30SMrbWCWyyLlA8JxA7C3eHsdgbvhObvtzmVWVr7dWls7wNsjKl1MMikAx6Sg4ppMoMvk7hs3tlhz8559fI387lfj2LSpxR59eEsHiPuWRaahLm4Axur95cnP2oWXvGmLl9RYS0u78aBL9gCMa70qlXQLwKVSkhHNBzf9UzO32aRrq23Byzts08YW534Auombn1+Cbmt33r7ZxpxZaQP6diwUmg/LNmyYcQAwVi8NbID3zDELnLth1y60bjd5GhJrWnT+F4CjUxYlmRIA/MT0Ohs2uNwtbXTLTdW25N0G27q1NWl+vUXM3BJM8nP9tZvs9OEVRfULRx3AwPewo5+2M0a9bA8/usrWrdvZ6eMVfJNWs8h8KQBHpihKMyEOwJ9OR0mXs/59ymzsWVWuBwQNcDt2tCX1D3MdLot1Vc025+ltdsXEjTZsUHEa6qIKYFwNvzhyluvPO+XuFfbe0s2G1Yu7QVs8FBCA41FOsU1lEMCAzL/2D+pXZuePX+/mCq6qbHZ9hFNlkka6Tz5usscf2WrjRle5uYd9OIU4RhHAWL3HnvCMXX3dYnv19Q1WX88sdAJvqjoU1e8F4KiWTImkKxWAgRoj4k4bVmGXX7rB5j1Xb/X1bc4/nMgR/seq21bXZh9+0Gj33FXruq31612YhrqoABjoMnwYq3f8BR3Dh9dv2OlGsQm+8bxhBOB4lltsUp0KwEHLFcCdfmqFTbp2k723pKGzkS4RxGSahjr8x4sX7bKrr9jYOZqOMIJh5vJzFACMu4FGtn6DnrfHpn1kgLexsU0NbLG5E5InVABOrou+zZECYQAMLPEPD+xbZqcOrbC7p9RaZUWHWyIRwvzve0tsqW21eXO3u9U4BvTZd5HQXEG4mADG6gW+Rx47226+dalt2LjLdu9u/bRbmVwOOaqmRQtGAC6a9D0j4rAA9rAEdsyYNur0Spv7TL3Vb2tz/mGgmwzGzC+BD/meuzbbGadW5MUiLgaAD+rVYfHSu+Gc816zdxZXW0NDq4YPl9htIwCXWIFGLTtdBTAgBnhYxIP6ldtll2ywt97c5UDM8OXEzVvEgJj+w1ddsdH5lXM5yU+hAYzVe8Sxs23k6JftqafXWO2Wxs5RbIkPoUQ99H+8FBCA41VesUttdwActIYB6cgRFTZ1ymYH2O31bUlHdXWAeI9t2dJqz8+tt0sv2mCnDa1wPSYAqA+zO8dCARhXQ68jZtmwES/a5LtX2OqP6twoNkE3dtU+dIIF4NBS6cTuKJANgD0sASD7OWPX2WOPbLWPP25MCmHS1wFic26JGU/U2QUT1jvfsg+rO8dCAPjAXjOtz8B5dvlVi2zxkuqOEWz7GvzdKQJdE2EFBOAIF04pJC0XAPbQxBpmaPIVEzu6rWVqqGtqbLdlyxrsNw9ssV+NqXL+YWDqwwt7zBeAfbeyE3o/ZxdPfMuen19hWz51N6hbWSnU/sx5EIAza6QzslAglwAOAnP44HI3THnhgh22rY7GqX0b6Ug28dO/+M03dtqtN9c4twQg7wqI8wFg4HvoUbPsrLNfsVlPr7HKqh3Oqs9Cal0aQwUE4BgWWpySnC8AA0W6rY0ZVWV33FZjS5c2WMMuplvcVx2+a2raYxs3tNhvX9zuLOghAzqGNQehnupzLgEMeJmft/+QF+w3D6+0VavqOoYPt2u2sn1LrvS/EYBLv4yLmsN8AdjD0oN47Ogqe+jBLW7tOUbNJbOISUtTU7sD8cwn69wkP340HeH4MBOPuQAwPl5GsR153Gy75vrF9u57NbZ9O8OHi1o8irzICgjARS6AUo8+3wAGlgASkA7uX24TzllnL8ytN2ZTSzYHLunhe+aXWL+u2e6evNmYl4LrE8Hr/88WwG7SnCNm2aizF7h5G3bsYJCJJkcv9bofJn8CcBiVdE63FSgEgD0oObqGuj5lds2vN9kHK3Y70NJ/OJmliZXc2Nhui99pcLOtDR5QnrTbWncA7BvYmLfh5H5z7bHpH306gk0LYHa7MpXghQJwCRZqlLJUaAD3CVjE+Hnvv6fW1n7S5BYCTYQw/wNhLOK6ra323Jx6u+i89Tao/96T/HQHwA68fee64cMVlTs6Ld7ENESprJSWwisgABde8x4VY6EBnMwapv/ws3PqrbKy2YEY6CZufMdourVrmuzeqbV27th1zjWBRc0+dFC5mzozCFBWFV61us5NC/mzQ2YYfl4GUpzcd65NvOJtW/jqeqvf3tw5OXpinPpfCgjAqgN5VaCYAPYwxoLFGr76yo2uF0RNdepJy0lv4+52W7K4wW6/pcbNSREGwLgcDj/6aRt//msdqw9XNzi3RxDYeRVagcdSAQE4lsUWn0RHAcCAGAgzyc9ZIyvtjltr3PwSO3embqjDb1xT3erWsbvhumobfWalzXhy216+ZCxghguf2Oc5Gzl6gd3/4Iedw4f5TZsUyKSAAJxJIf2elQJRAbC3hjli0Y4b07Es0sqVqYc1k3FcEyyL9OL87Tb/+e37APijj7fZgw+ttKXLNrtGNmE3q+rS4y4WgHtckRc2w1EEMNYwEKbXA3NFMGcEU1r6/sNBhUg/EKbb2tYtey8kym+swVZf3/Tp3A3Cb1A7fc6sgACcWSOdkYUCUQRwojXMsGamvXz1lR22fXvyRUKzkECXSoGUCgjAKaXRD7lQIOoADvqHhw4st+uv2WQfrW50KzJj+ZJ+bVIgXwoIwPlSVuE6BeIA4KBFTEPdmSMq3LSXNTUtbg6JZCPqVLxSIBcKCMC5UFFhpFQgbgD2/mFAfP749fbiC9utdnOrWyg0ZSb1gxTopgICcDeF02XhFIgbgL017EHMjGs3Taq2d97e5Rrh5JIIV+46K5wCAnA4nXRWNxWIK4CDIGainpGnVdgLCd3QuimJLpMCnQoIwJ1S6EM+FIg7gH0j3TCGIk+vU6NcPipJDw5TAO7BhV+IrJcKgJPNBVEI/RRHaSsgAJd2+RY9dwJw0YtACYiwAgJwhAunFJImAJdCKSoP+VJAAM6XsgrXKSAAqyJIgdQKCMCptdEvOVBAAM6BiAqiZBUQgEu2aKORMQE4GuWgVERTAQE4muVSMqkSgEumKJWRPCggAOdBVAX5mQIC8Gda6JMUSFRAAE5URP/nVAEBOKdyKrASU0AALrECjVp2BOColYjSEyUFBOAolUYJpkUALsFCVZZypoAAnDMpFVAyBQTgZKroOynQoYAArJqQVwUE4LzKq8BjroAAHPMCjHryBeCol5DSV0wFBOBiqt8D4haAe0AhK4vdVkAA7rZ0ujCMAgJwGJV0Tk9VQADuqSVfoHwLwAUSWtHEUgEBOJbFFp9EC8DxKSultPAKCMCF17xHxSgA96jiVma7qIAA3EXBdHrXFBCAu6aXzu5ZCgjAPau8C55bAbjgkivCGCkgAMeosOKYVAE4jqWmNBdKAQG4UEr30HgE4B5a8Mp2KAUE4FAy6aTuKiAAd1c5XdcTFBCAe0IpFzGPAnARxVfUkVdAAI58EcU7gQJwvMtPqc+vAgJwfvXt8aED4JkzttlpQyusX+8yO+XEtbHb+5y01oYOKrcnptUZ+dEmBXKlgACcKyUVTlIFANbaNU32+KNbbexZVdb35LUG0OIEYgE4adHqyxwoIADnQEQFkV6BtrY9tm1bm61e1WhTp2y2YYPLY2UNC8Dpy1e/dl8BAbj72unKLirQ3m5WV9dm7yzaZb++fKP1O6UsFhaxANzFgtbpoRUQgENLpROzVQB3BBBuadljtZtb7bln6+2cseus/yllkXZLCMDZlryuT6WAAJxKGX2fVwUAcWvrHitb2+TcEmeOqLT+fTos4qj5hwXgvFaFHh24ANyji7+4mfcWMSBe8m6DXXXFRjt9eEXkrGEBuLj1pJRjF4BLuXRjlDcgXLe11eY9V2+XXrShs9sa8Cu2RSwAx6gixSypAnDMCqyUk+st4srKZntyep1dOGG9DehT/L7DAnAp17ri5k0ALq7+ij1BAQ/hhl3ttnzZbnvogS02dnSVa6ijD3ExrGEBOKGQ9G/OFBCAcyalAsq1AjTU1de32Ruv77Sbb6i2U4d0+IcL7ZYQgHNdsgrPKyAAeyV0jJwCWMPsTU17bNPGFnvpxe122aUbbGC/wvaWEIAjVzVKJkECcMkUZelnpLGx3aqrW6nrjYUAACAASURBVOzJJ+psxPCKzoEc+XZLCMClX7eKlUMBuFjKK94uK4A1zLDmpsZ227ChxSbfsdkGfWoN59MtIQB3uah0QUgFBOCQQum0aCkAiHftare339plV0zcaEMHludtRJ0AHK2yL6XUCMClVJo9KC/ePwyIGdY8e9Y2u+i89TZ4QHnOe0oIwD2oYhU4qwJwgQVXdLlXABgzv8THHzXafVNr7dxx61z/4Vx1WxOAc19mCrFDAQFYNaFkFADEuxvabcniBrv1pmobdXplToY1C8AlU0UilxEBOHJFogRlo4BvqKupabFXXt5hk67d5IY1ZzMRvACcTYno2nQKCMDp1NFvsVYA/3BVZbPNm1tv549fb/16d281DgE41tUg0okXgCNdPEpcNgpgDbe37zGGNa9a1WiPPrzVxozqGNYMVMP2HxaAsykFXZtOAQE4nTr6rWQUYFjzju1ttmxpg910Q7XrtsYioWFALACXTDWIXEYE4MgViRKULwX8ahy7d7fba6/u7OwtkQnCAnC+SkThCsCqAz1OAd9Qt3NHm017fKubBD7diDoBuMdVkYJlWAAumNSKKEoKdPiHO/oPf/JJo901ebPrtpZs/mEBOEolV1ppEYBLqzyVmy4q4K1hpr18beFOu/H6aht5WsVew5oF4C6KqtNDKyAAh5ZKJ5ayAoCYvXpTiz07p97NL4FbAvgKwKVc8sXNmwBcXP0Ve8QUoKGOaS8/Wt1ojz+61fUfHti3zIYPLrcnptU5SEcsyUpOjBUQgGNceEp6/hTAGt65s93eX7Hb7p1aa+PGrHPzEPO9NimQKwUE4FwpqXBKTgFgy2rNW7a0uvXpXl24UxZwyZVycTMkABdXf8UeAwU8iBt3t8cgtUpinBQQgONUWkpr0RSQ66Fo0pd0xAJwSRevMicFpECUFRCAo1w6SpsUkAIlrYAAXNLFq8xJASkQZQUE4CiXjtImBaRASSsgAJd08SpzUkAKRFkBATjKpaO0SQEpUNIKCMAlXbzKnBSQAlFWQACOcukobVJACpS0AgJwSRevMicFpECUFRCAo1w6SpsUkAIlrYAAXNLFq8xJASkQZQUE4CiXjtImBaRASSsgAJd08SpzUkAKRFmBWAD4448/tilTptj06dNt3bp11s6yBWbu+Mknn9hdd91lzzzzjNXX19ueLKetqq2tdWE98cQTVllZaW1tbfuUH6ItX77c7r33Xps2bZpt3rzZpaW5udmlb968eTZz5ky77777bNasWbZw4UJ3TrZp2ych+kIKSIFYKxALAD/11FP2ta99zQ488EB79dVXraWlxYEWOAK4b37zm9a7d28rLy/vhHN3S+WDDz6wPn362A9/+EObM2eOAdXErampyaZOnWp///d/bwcddJCtWLHCgXrBggV24okn2o9//GP753/+Z9tvv/1s//33t//93/+1RYsWZf1wSEyH/pcCUiDeCsQCwI899pj93u/9noPZb3/7204Ak/jHH3/cPv/5z9uhhx5qWMPeOsba9HuqIkr2+7Jly+zwww+3v/qrv7JHH320E8DBc3kAYPkC3379+tnq1att48aNDrx/9md/Zv/4j/9oAwcOtBEjRtjJJ59sBx98sL333nupktHt74Np6nYgulAKSIGiKRALAAPC3/md37Ef/OAH9tJLL+0D4N///d+3Xr16OQADR6zWxsZGB70tW7a4/8mohzOWM1Ys5wBPPnMdvy9dutQOO+ww+/M//3N78MEHbceOHe53LGPC5VrO3bp1q61du9bt27dvNx4Mf/qnf2p/8zd/48CNq6SmpsbWr19vFRUVtnv3bvdAIB2EQ5x+JzzCJX52nweOpLGhocG4zn/vr8ddQvh8z3UAWZsUkALxUaDkAIy7AhfAF77wBfuLv/gLt3/jG9+wa665phOCWKOnnHKKfeUrX7G//Mu/dDvuBPy27777rgPwH//xH1v//v3tiCOOcFAlrH/913+1V155xXbt2mW33367+/7f//3f7Z133rHbbrvNuAZXyVtvvdUJa8Dq4YrYb7/9tv3yl790FjZhfv3rX7fhw4c7NwZAxlVBur71rW/ZjBkznEvjpptusvfff9+OP/54l7dzzz3XuTe4HuAPHjzYQZ7wtUkBKRAfBWIF4O9+97vOulyzZo3z93IEfLgnvAU8f/58B9D//M//tGOPPdaAL5YpgH3kkUecJXnhhRfan/zJnzjfMYD97//+b+P8N998sxPAf/RHf9Rp0X71q1915wPrUaNG2bZt2wwo4m7A18t1t9xyiwMwQAXIQDe48T/W9t/93d+5cDmPz1/+8pfdQ6Jv375GY+Mbb7zhwsWqJ43A+OKLL+60zPmOdHDt3/7t37rPQP+6665zFnUwTn2WAlIg2grECsC/+7u/62D7B3/wB87vC6SAL+4JD2Bex8kUR177N2zY4FwXWIqXXnqpe2XHsuW6CRMmWFlZmXvN55qgCwLQ4Ve+//77XcMfMAfk+HNxa3QFwLgGsG6xwv3DAF8zrgt8yUCc9GFdewCTRx4a48aNc9YvFjC+aaA/bNgw53PGBXHeeec5gJ9xxhmuF0i0q5tSJwWkQFCBWAEYy+9nP/uZnXDCCe7VnON//dd/GWD2AMZfis/19ddftxdffNHmzp1r//Zv/+ZcEpdccomzXseOHetAhvsAa5ieFLglvN8YHzCge+CBB5y7AZBjhfIdDW+Ar6sAJmxcBbgpsLoBMr5crGd6d/BAeOGFFzoBjA+aOHfu3OmsaXzQAJjv6d5GePx2xx13OACfdNJJzoIOFq4+SwEpEG0FYgVgLEUa4QCXb6yih0SwEQ6gjR492n70ox/ZP/zDPzgrEquTXg1YwFijhEEvBQD8xS9+0UEN6NJf1/uA8a8+/PDDDpRY01wL/LCAuwNgID5o0CDnVgCW3lLHXwzUEwGMD5uubuSVNH/44YcOwKQLq9wD+M4773QA5mH00UcfRbu2KXVSQArspUCsABymF8QVV1xhf/3Xf+18uliQl19+uYMwQAOigBt4AavnnnvOABh+WH7nfBrBcD1gbYcFMA1rPAhwWxDW888/73ouAE924qPhjm5pnHPUUUe577CCsdSx6sMCmIcAA0CwfvFF4wPnO/of40PWJgWkQHwUiAWAgRtuBgCcrB8w/tJf/OIXrhsa7gVgBpAYIIFVS+8FLF0AjIsC/+vixYudVclnBnIAbX4HpljDAJhGOyCZaAEHfcCkiUY3RsYBQqztY445xiZPnux6VTBK7+qrr3bAv/HGG93v9BOmsRBrm8Y7GhdpbCOt3gdMepNZwLhBaAjEd8wD4rjjjnPxnnrqqc43HZ+qp5RKASkQCwADmz/8wz90IH355ZddIxuv5fQsYHgyViX+UXpFADy6cAFVejfQJY0GLgB32WWXueHFQJrvDzjgAGcpA056FDCcecmSJc5CxSIG/FiwABhLGkjja8byvPXWW51bA7hzDRYpPmZcBLg7vv3tb9v3vvc9+853vuN6LLz22msOwrhGgPu//Mu/uDTgJiFtZ511lvNd40IhjC996Ut2zz33uLipprggeDD4rm7/9E//5AZ8kE4+45YgrdqkgBSIjwKxADCW4pgxYzotScALgHEn8BtApTGKORno9QC4jj76aNdYR88DBnLQW+DZZ591AyiAFb8zRPgnP/mJaxR78sknHUSrqqqc9cr5WMkIRHy4K8aPH+/6/wJbHgT8j3XLNaQFy5jzgCl+XhrXBgwY4MC/cuVKZ00z0IPeFz7uI4880rlBGEaNqwKr/ec//7l7oMyePdvFT3UKApiHwMiRI1268SvzoGAeDNKgTQpIgfgoEAsAk0hcB1h4Hr5I7K1gGrj4zf+P24Dz2YEa/3PEkuUczuU3QIpv1ocdvJ5riBeo8T3X8h3X8j07/7P7NHHkPB+3D5u4OZ9wOPJ/MG4fBnERBvlh9+klr74RDmv97rvvdsAlHuIgTT6d8al6SqkUkALw4HP80RZtBbCgsZZxbzBEGmhrkwJSIN4KCMAxKT96bdB1Dt8xw62xerVJASkQbwUE4JiUH/5tBpYwRSYzr+Gq0CYFpEC8FRCA411+Sr0UkAIxVkAAjnHhKenZK+AbRmnwxK3jG1b5zHfsvpE1+9gUghTYWwEBeG899F8PUADo+h4n9Olm8ItfQopuhVdddZUbBEPXRPztdHXEBQSI1dukB1SQAmZRAC6g2Iqq+AoAX7r4MR8IM8j93//9n1t+igExLCHFUHJ2BuYwGx3fM9iG81iqiomQ6urqip8RpaAkFIgFgLE6/Osgr4bB3b86+t/9/2HP8ecHj/6zD8P/z5Ed0WQJxa/+U26sUsIgG8DKsHGmMv3c5z6Xcec8zmcqUAE4fmUf1RTHAsBMxXjllVe6uRqYr4Ehvxz9nvh/V84JXhv8HAw7+D2feU31c1JEtWCVrn0VYJpSpgRlMAsz6DG/SBj4+nOYpP+0005zFvS+oesbKdB1BWIBYPxzDEBgPogo7MwtwbwSGgzR9QpXjCt4W2GoNmVGPeoqeD2AWRmFlUcYyahNCuRCgVgAmMYQJtzhxuFVsNg7NzGWsG7EXFTB/IeBK4mJ+fHlhnU5eOgGjywDxTBwwtMmBXKhQCwA/MQTT7hZwII3QzE/M5sZAKYxR1v0FWCSJOaJZpa5TPWGhzzTmeKi8Ete+Qc/CwIwYx7tANqkQC4UEIBDNMAk3rQCcC6qXuHCYCIj5tFg3ujEskz8n+k9WcKKqUzZWfKKHhFMRcoKKkwXyk2jTQrkQgEBWADORT2KdBj082USfCzbROD6/5lnmZVJmOeZFU2YHJ9FUtkff/xx1/2MaT+xpvEpa5MCuVAgVgDOxn/nb7RcHGUB56LqFS4MgApg09UfJrWnrYHpPbVJgUIpEAsAc2OwFA8WTNgdvx17JuByU3q/X9iw/fJFaoQrVDXNLh4myc9UFw455BC30oms2+y01tVdUyAWAGb1CVaJYPUKVpII7v47jn7nd/x3dBtKd+MBX2DKuYnhpIuD9edYdUOt4V2rbMU6OwyAjzjiCLkWilVAPTjeWAA4uEqEX20i2dGvJMFvjPFnocp0DS9YvDTOcC7XcD1HLFv/OVk8/I5wspbicecIwPEop56YylgAuKsF48f7M9b/85//fEo3BN2Mjj32WHUn66rAMTtfAI5ZgfWg5ArAAnDJV3cBuOSLOLYZFIC7AWA/nSHi4QdmmCurMa9bt86WLVtmrHzs948//titYOEXz+zq3LLExTV+QiDiC+58z+/JNn8tLhPSuGPHjk63if8tXbjpXCzESTqY3Ibwk52bGAfn4dJZv36906qystJY6w6t0G3NmjVuhWl+Z9FShnqny18wz8RFGnyZBDVidel0bQE01B566KEuH8HrEj8TdpiNtPh0kA9WMCkrK+usE75uMMcJq2Ez1SW6EF9X6wfpCVM/SFPi5jVDYyYYwhUX3AjX5yNRi3TpDIbLdZQ7ZUp5k2fyv2TJErez1Bb1Ml14Pk3B8kUvdAvWIV+P0JS6E7a8fPjFOJLGkluUkwqADzdfLghEq66udvPIsuQ9EwWNHj26c6n4ww8/3A477DC39+/f38aOHWvXXHONzZgxw1VAKmSyGyJZBeDmAFJcO3369L12eoc8++yzrnInC48Ky43PdTfffLNLr6+UVPgVK1YkDZeRh0ALuCbbCGPt2rXGeRdccIEDpw83eD7QZxAEExfRh/aWW25xcymMGjXKzjzzTBsxYoSdfPLJTic0Y827kSNHOi3Ra+rUqa5PLjcZ6U23kVcegnQ58zqRPj6ff/75abugAWAGX0ybNq3zWh9G8Pjqq69mLDfKYfv27bZ48WKX50mTJtnZZ59tQ4cOtWC9oH4cf/zxNnz4cJswYYIrn1mzZjm9ujrHCJMMsVRVMK3+M+VIGSTTD81qa2vthRdecHMgP/30050Skw/Kn/mQvY4+TI7Mkcw9lqzeUb+pHwsWLHAa3HTTTUaZU97HHXecK+9evXoZO/cHv69evTrpQ9wniHgoXwbC0C+ba8aPH+/CPPHEEzu1RWM0Zcj48uXLk6bPhxmFI/eNABxiSDEVALEAL6sSMy3hT3/6UzeHLF3kmCQIfzM7DX/s+Jj5n9+Yy4LBAEcddZRdfPHF9tprr7mndLIKHKwYPOmnTJli3//+9zvnp2WeWj9XLb01uEkIh50bDavrrbfeshtuuMEBjnjp58pctlgknAfYr7/+evvBD37gwvLh+bBZ/PP111/fK1wslbffftuF27t3b/vud79rX/ziF23+/Pmd4WLpA0GG/tIIevTRR9sBBxxg3/rWt5wGzCjmJ1QKaoVeXj+v15e+9CUHxr59+9q1117rbihuesCRuFE2zPGLJctUkz4fHOkNk64PMABmqsngNXxODAeIJisvviN+BmkABx649Nr59re/7WZeI8/BvPphzj7P/E7f8u9973t2zDHH2LnnnuserIRHuJk2wEk9oDwS88CDBe081Kkf1AEe6vfee6+DFSP8mN/koosu6gQ151GHqB+EG9SCz0COhzvpY6fO8UDn3rjwwgsNKNK76Dvf+Y7T1mvgdfAaUNbUIc5nwAxh+XpMmomDhwtGDg/oAw880IXJsHJfj/z95o98T93hAYfhQtqiupFfATgDgH2F4BVnyJAhrpLTgyJTH+NUvzMdIqOusPCwlpIBxVcYfmf6SwYSJIbHazUzszFDFzcMhYm1A+CZQJxhtR48X/nKVzpn8iI/WClYhsnCJR7yh9XKTUDY3AjcoNzoxMnvhM31999/v7OGyMfWrVvdNKFdmWs3MV+J/xMPeaGrGDdUsjcIHijcqDyoEq/P1f/Juqr5urFq1SoHJR52AMDr3tW4uQ5I/fCHP3Qgp86hK/Gk2h5++GH75je/mdTNQvlgLHj306ZNm9xoPyxFJhcKumZ4++A84qIu8eZCOSbWddL4jW98w1mjGAh0E/3Vr35lBx98cOeDtiv5JjyAjEWMu4Y6h2uCtwcsZh4C3DPBtIYJn3L48Y9/7OpMOv1S6VqI7wXgDD5gCo6bmxWJgY8fEBKmAqQ6h4pE5cA6YIpEbopUWzoAU3GxrHm9wzLHojnooIOcRcFNHKywVGBe2fxrYyYAcy1uAG4ILGfyjqWClcFvxM2OZcMSPtyIaOXTG4w7lQ5d+Z7wiAvA8UrMTRp8cOUTwOST8sICDsbp6wZuoP/4j//onGeY87uSt8RzuR4g0Uf9hBNOcKDDak21pQMw5QXEeEDQGImlCTypH/4h6uMfMGCAc2eRx3QA5nyu79evn3vDYpIiLOhg3fBhhj1SvtRl3BTjxo1z827w5oLuiensSphczxvUJ5980mndp9KxGN8LwGkAzA2GQIsWLXLWAhUs25srWHm4yXg1x4JMZtVRIbBIeIVMZalScXnN5PUMK5cwk6UReJ1++umuMY58ER/+21ThEgZ9pPFVskRPqnC5EfF/85pHuFjL+KZzDWCvG+nA2sMypGz8lm8A8+AFDEEAEyd+YV7RuwsJn69URyxQ3FbvvfdeSkv4kUcecRMGJdOcdGFBAnLcE9SDVHF5UPu3qVQWMNdTPwgrl/cEYQJh9lRp7M731Jff/OY3zvXi60tUjgJwBgBjWWJV8iRNBrbuVAh/DeFx0+AvBPJBoPgK4i3KVKAkLMLgRuBm82EnHgEllkBVVZUDZSYLmOsJz4ebKu8AEauKdLIBYRp1cFOkuiYxbV35nzBJE0OHsYKJj60QAD7nnHM6AUy8tLbj6slH3fCa+LLlAUtjG3BM3NJZwOhFOfo9XZngQvD1kLqYDsCkL11YPv1dPRJmrsOlfHh4ci9HbROAUwCYGwxxeA3H/5gObtwk/E5B86rP6xg7VhPg4/d0lQq4Ek+ytcbCADhMJScdNIjRDYi8hQFwmHDJN8O46fHgNxrvsLqAs9eGz4CTdLBjPaEPerF7a4rwuCZd3GgJ4GkQ9ECirJird//993fxEp/f05Wdj4c4g+nz6eRIudKo8+tf/9pp5/UDyDSehUkvaUgMn//5Pl3dIH38jlUIaHEhJW7pAOzzF+aIG4WGTB5mYQAcJswonIPOTB9A17eobQJwCgDzqon/E6sg3Q3MzcFrIq+hvLLT5YhGMNaUY/0wrOevf/3r7uZLVRkBBY1ytCInbrkEMJWQ7lEeIOka4VKlNfF7tKHBKNiHlBZ2rGJ8mLhF8HWzGgV+ZPRg52GAS2TMmDFup/WfXiX0BADImaAEvPFpe9cNIGbqSFq+ccmw/+hHP3JH4s8UHv5tnzbKnN3/zxsK+Zk3b57TjpsGHZkrmHDThc1v5AffNb0CCJOwCZPrqTfkJV0YaO7rCHUyccsVgOn5gp+41ABMHaU+4C6K2iYApwAwlZAWd/xmidDx/2P50B2Gxgi6AuGvxUIBCux8pvcA/V+5AVNZO4QDrFg2hwIBkH4jTKzjdC4In57EIzc1T3/gAuDpLcFgkWwBTLgAASuUV3C6nAUtM/qP0nCHj5n5dWk0w1rlFZBuan7nGr/zHR3raezkIcZDK92DD4sZiHMd+eGBiRUO/H0nf3+87bbbMgKOFni0xpftd59OGhhJJ3WCDdcH+aIxK1Fz/z8akX4aqOghANjoz+zD5ohLgXpDfunaRVn56xOPhIclTo8DHjbBOtJdAPty5AHBw4oHGvoRPvUwkwsiWRrJM28NhMlE9oTLw4ZeFzyAwjxcE8MlTLShzPHn8qCgPuMb56FOOaTTjvuL+xjXWNQ2ATgFgAEoNw6vmIkVwv8PhOiaRIdvABC8KXxB8x03L0sYpXtdpZLRb5cbMxhOdy1gbi4qLICkpwUA9D5Twid/3bGACReLn3AnTpxo77zzTme4Ps8cicNrwudkuz/PH/05gJS+sACH+LzewSM3HJY3EOM6v/kwgsewQ5E92ILX+s8+fI70z+XtJt1DkZuevtcPPPCAK9N0WgB6ZtfjbSGYx8TP5Jk+tok9QLoLYOqv7+4GnIJvMd0BMHrgAjrllFNcOidPnuygxyALHj64pvBlo01i3tL9v99++7lGRPy4d955p3M1cc/xNkC9ph5nehhiLAQHmgTLs5ifBeAUAMZa47UTCKSqHPgFGXHjG6BSFSQ3H63YdMwHtMnCo1LyOs7IJM73W1cBDLBIMzcWlimvXYRBQQMTNo5dBTDp4wYjXNwrDCTBZx0M16c52yOAId3cVKkADDxwV9Bo5POVKt6wAA7qniosvsePjvWVzuriYYtO1KNM6QP8WN90AyPMdHlm8igscq7xW1cATNhoh7bUN7QhjZRjMP/8n8kC9mFRL3Cr8MZDeIyC46FCOfLWQFrZ+Z83nK997Wsp88i9wT2CpYzbgC6W9PIA4hgnwTBJL+HzpoP7Ktl95b+j/tKvPWobOmsgRpKGDfpNMqoq3U2GDw9Q+FfTVIXLDYhVx+tSqvCoINxcjJkP3lxhAczNQBi4RAYPHuz8ldzUyW5+vgsLYMJlx+rF1cIoNwZbJAs3Vf67+j2VkldhRmgRt7+JgkcgglunGADG1/w///M/DmTBNAU/4/NGq3T9d4O6kGcGktDYRjkGw/KfARPdFinXYB0JA2BfjjyccbcwYo/+50HoJqYnE4BJJ+nBxcabEG8GmeoFhggNtKnySF7p9sgbEEOZ/cMhmLbgZ+LjgYSx5HVKdiT/TBsQtU0ATmEBU1EY9pgKmBQyfi3OQ8R0m68kvJrhH0tWQaiQAJquTcGbKwyAuZZ0MuoHixwLBMCmurlITxgAU2kJF0uTvsqEiwVCuJlutHR6ZPoNPZnECD9fKgADI94ogFymtOTaAvZL3Kd6m6F8sQh9l65M+eV3yhwgYvmlCpfvsaypE8E6EgbAlCOwvPzyy53LzFvRqbSjDDIBmPRQZ/Hd86BJVd+C+Q8DYADNsOSwdY14+/Tpk/S+8veaABwshTx/plLhd81mMh5avHkFwtLyhZh4BMC8/lBRqLCpdixkXp94xUwHYBop/Ph6LxHWTqZGONJIDwcqLTdWphsBfcIAmBuMh9D777/f2djl05XPI3ChvzITtaQDMK/RdLBPBRGfxlwD+KGHHko58MHXEdKeqt+uT1fwSJ4BK28w6QDM77xNUdf8lm4ghk8PjWE0huI2ylQ/CDcMgKl3PGhwNwQfCD5dyY5hAMx9R50LGyblTx93n9dkRwE4WWnk6btcAJjhpfg70wGYVzkaFnglpwHDT+nH5+D/fE/PACawSRUeVmwyAIexgIE6E99410AmIPF7JgBTYbGamLWMGz7MTZur4uTGwxWDKyUdgOkpQSNXprTlGsDESdzpXqNJO3nIlDavWTYADmMB080PqGVyl/n0CMBeifwe0Vk+4CQ+YA/gVNYIT1kAhc8uOKCAV8hkO+fhf0t102YDYMKlT22wFTtdtQkLYMBOIwjWezYbEAIw3PzsvK6m23k44IqhxTwTgHGNZIKcAPy5zvkgwlqVAnA2NT78tQJwCh9wGAADB8AZ3AE2u/8u+DkVTIB5qQKYG56eHbRi466hHyu+RUZcsQc/+/9pKed1mUbQVJqhK1aoAGxuhFyq2dD863hwnocweBCAw6iU/TkCcBYA9pU7F8dSAjAWKRYu/mwmGafvKoMm6NXA2wI9KtLtvC3QtYk3jFTaCsCf+YDDuCAEYPWCyP5xETKEXPqAudFTQSCX35cSgGmUZMUE/MfMOQtIsWT9ngvdBGAB2OOA+12NcF6NCBwF4PSFkC8fMOHySkVLNw2ODK/mwZLKjZANiAVgAdjXcgHYKxGRY6EA7C06joDGw8Yf/ff+vHTnABQ699P4BMT8FqYXRFQa4XA94O/F5YCLgXxnA9l01wrAn9URuSBkAXteROJYKAD7XhDAhp4P+DfT7enOoX8nfW7p/xpsqY4TgOnhwDpijFDjYZMOoNn+JgALwB42soC9EhE5FgrAjNRiDlqGLbOGFaO3/JHPZd1CEAAACgRJREFUibv/zR8Tf6ffqB/946WME4DpkM8sYTSipbJ++Z6+0HRxw3JnwqBkR35P1WcaeAvAArC/RwRgr0REjoUCsB8JR79V38c1myOWb2Kf1jgBmH7IrOkFPFNZuPzGSCcGM6xZs8aNomLUIiP4/E6/Y4Y9ZxoJF+VuaIMGDXJTfyaWZ6pbhLKnrLszEk4uCLkgUtWronyfCwCHHYocZi6IbESIE4Dx/zJBUTrLlbmJ/dSYwImyStyAUdiRcMXoBzx9+vSMK2PT7YsVqoPupMR8Bv/nPB5gYQBMnQiGKwALwMG6VPTPuQAwYGX1gnR9UQ844IBQs6FlI0icAMykLGiCeyCZBYz7gdUpcLMkA6/XKeoAZqAIy/ekyid5Z5IapuzkjSjMRp6ZAY42hFTh8j3z2grAeytKXVI3tL01Kep/uQAwI7dYETjd6zR9XFk1AxdEvrZSAzAPNQZppNuiDuA333wz40x5uEdYFQS/eKaN+oomN954o/OJp2rA5M2CSXVw0cgC/kxVAfgzLSLxKRcAZh5Spo+kkSiZNcd3NB4xbynTCOZrKzUAM09u3AFMTxWmP0z3cObN6aSTTnIT4GTyAwNTJsrBqk4FX+obAB46dKib6S8YplwQsoDzxZ9uhZsLAGPVnnfeeW4wQSoA80rIK/Xtt9/uJqP201JyQ/mdPr2+YQ7wEC4WDK+bzGXLtaxZRo+IoFXjMx43AOMDTvUKjQuCVUToBYImlJPfyTv60CC3dOlSZw0yL2yq3hTEUaxGOKxa6ka65aoAKStjM6EQLgvKkbInj37nf/zmTz31lFtyJ13vEeogwAe2XjtfRwRgAdjXhUgccwFgKjnuBRZLTAVgvgcQLPiHRQRMabxjdWMsGvaFCxfazJkz3eQyU6ZMceuz0UJ+yCGHuJWCWQeMtcNYDYEbM3GLE4CZDpPGp3SNcEBmyJAhbgUFej2gMwuFMnQZnQAb/aGZ6zedNVhMAJNm1hdjwc10dYPfyC9zYDAXNJOh0/uDRjwaD1lTD0DzoAGuqR42hIMWuLxwjVG/g5sALAAH60PRP+cCwLzisegfK7oClHQ3BzDAVcFaVywzzjzCrNzKkdUksJJZvQGo0IjCTckrKuFyYzFA495773XdsBLFixOAmTweyKBFKr3QCssReDH/8U9+8hO3kgcQQiOGL6MNuqQKAyAVE8DUDVxUPGxIa7p0kg/KmcmFKHtWCiafHH1dyFS/yC/urtGjR7s5pxPriAAsACfWiaL+nwsAkwFei3EPcKNww3Mj5GNP50uOE4BxweBWoSU/HZRyoWExAezrBhY7y/zks26gI+HTd5p115K9JQnAAnBRgZsYea4ATDi8Jp9wwgnOAskFOJKFgRV1/PHHOz9wYl7iBGAeWAygOPLII9O6D5Jp0NXvig1g6gY+3PHjx7s3mHw9cMgnbwUsx84bRrDxzdcVAVgA9nUhEsdcAZjM0IjGBDn48ZjzgRsi1zcbYeKqwMJJ3OIEYOBAA9XUqVNdAxT56ipYOd9bfTyYUvlGCbtYjXC+jHjg4PfG/w8kw7gSwuqB64L846qYNGmSa6yjXifbBGABOFm9KNp3uQQwYQFhRjUxNParX/1qzq07IEMDC/1LE7c4AZi0oxdW8MiRI9P2IEkHIkCGn/SnP/2p6/fK/4nnRwHA5NVDmBngmIQoXbfFxDyk+592Ala5pmEXyCezfH1dEYAFYF8XInHkxsAfyXpmWK0ALtlOJce9wKtkuo3waPnesGGD3XzzzW6Axn777bdPY1oyy5jvsGYABiDBqsHn+4UvfMG+//3vu0a+YcOG2XXXXed6AySmgy5r/MYQ1WR54Dsa8cgrsA6zkR98iRdddFHKcEkj2p199tmhBhME40Wr5cuXuwnZ0YmwyH8yfXwjFfnAitx///1d/2tWHqarHo16yfJOoxZhh1kVGb80ZQ0cU+3HHntsWsgF8xf87CGMq2r27Nmuny59nemCRp4oc/JI3hPzH6wbvl4wVBvwMqfG/PnzXZdF4ki3PfbYY66hl7ylqiMnnnii60GRDuTBOHiwLFiwwDWYpgqXMmBhWroOhg132bJlrvdPqjBJP/2hMXjChok+fsXxVPmnDk6bNi2YxUh8xrgryUU5gQAjkejmwzDFZDuFdsMNNyRt2EhWOhQ04dKP9Z577nHQw9+JewIY0LofvMmoDF/+8peddUuPCFr8sepI01VXXeW6uVHRqMCpbjJ+o8sTq+wmywPf0a0tVS+KdPl4/PHH04ZLOuk2lekBlSoOBizQ9Y5XdHo5AMGg1Yc+uBEADg/Cyy67zOV1y5Yt7uajctKNDxgl5r1fv37Oyn7llVdSaufTRdcturexT5gwofPIZ79TV1KVgQ8n05Hrmc+B9QQvvfRSI42UN71gkq3ZBhTohoj7ia53lCMPW/oNsxJ12PQw5JkHMPEl6uT/p55jQISFGud98MEHrstgqnB5I7zyyiv3mcEvnU648xi8xLU+bYnH888/v0sTGaETjeWJ4ST+/8Ybb6RLWlF+K0kAoyRPcG5kCpxZt3gt9kc+s7NmGaPYOLcrG+djYbPUPE90bhj6DNO3k4pwyy23uGkZJ0+ebI888ojrA/zCCy+4uQFYxp40ATVgTljpbjR+56b2+SAPwXzwmd/o0N+VfHCD1dXVuWu9Holho09Xww3qSHqwDHlgzZ071+6++26nD1NWohMNSzwEWIwTaxdrH01IG5pw5Dv6CQfz7NNbWVkZyuqnkvMgS7fzRpCuHIL5SveZNJMH3kbQj5uegRb0/SXP5N3Xj7vuusseffRRN6Up7ifyQ70gvYQTdqNxrqKiwtVpr40/+jKl2xzpCptHzqPskoXrwwzeP2HD5b7hwUz6kpUp3zERU1fLg3vRpytZ2PxGXYraVrIAjprQSo8UkAJSIFEBAThREf0vBaSAFCiQAgJwgYRWNFJACkiBRAUE4ERF9L8UkAJSoEAKCMAFElrRSAEpIAUSFRCAExXR/1JACkiBAikgABdIaEUjBaSAFEhUQABOVET/SwEpIAUKpIAAXCChFY0UkAJSIFEBAThREf0vBaSAFCiQAgJwgYRWNFJACkiBRAUE4ERF9L8UkAJSoEAKCMAFElrRSAEpIAUSFRCAExXR/1JACkiBAikgABdIaEUjBaSAFEhUQABOVET/SwEpIAUKpIAAXCChFY0UkAJSIFEBAThREf0vBaSAFCiQAgJwgYRWNFJACkiBRAUE4ERF9L8UkAJSoEAKCMAFElrRSAEpIAUSFRCAExXR/1JACkiBAikgABdIaEUjBaSAFEhUQABOVET/SwEpIAUKpIAAXCChFY0UkAJSIFEBAThREf0vBaSAFCiQAgJwgYRWNFJACkiBRAUE4ERF9L8UkAJSoEAKOAA3NzcbH7RLA9UB1QHVgcLVAdj7/wquoJt1BvKLAAAAAElFTkSuQmCC;" vertex="1" parent="1">
          <mxGeometry x="620" y="580" width="96.89" height="90" as="geometry" />
        </mxCell>
        <mxCell id="PFUlSl_77ustU3yYr6jG-23" value="" style="shape=image;verticalLabelPosition=bottom;labelBackgroundColor=#ffffff;verticalAlign=top;aspect=fixed;imageAspect=0;image=data:image/png,iVBORw0KGgoAAAANSUhEUgAAAL0AAAEaCAYAAABEuVbSAAAgAElEQVR4Ae3dCfx9xfgH8PztW4q0KalEsmQpJUVSWimttKBsWcpSiGzZlxBlFwlFWrUgWiRUCIlKlLIkhLKv5/96j56v8z2/c+733vu9y7n3znm95p7lzpmZ88xnnnnmmWeeWervf/978c9//rMx/OMf/yiGGeSfw+zSYJjYqsM1rC3lj3xkCswKBeA9g35Wajt/Z6JABn0GwsxRIIN+5qo8f3AGfcbAzFHAwDnL9DNX7bP9wRn0s13/M/n1GfQzWe2z/dEJ9H7ykSkwKxTIoJ+Vms7fOUeBRYH+P//5T5FDpkFbMDCH6gUu+gL9v/71r2SLk+1lZtdepm11D8hwqQEudPQMeon64D//+c/FjTfeWPzhD3+Yd/asHPwfccrPy9eLjRPpd0on4si3fN1Ujm7iVN+N+6ZylNPsFCfidROn6Xuq70aaUcZ4r+55/BfnheJEPOdqKJejUzpN/0V65XTiWfn8xz/+MeHy3//+90KYTwx7Kcjv9gD6Y445plhjjTWKO93pTsXtbne7FG5729vOXcezfP4vbdpMh27qbZRx+qHV7W9/+2LppZcu3vSmNxVDA/3vfve7YuONNy4QY6mllsoh02CsGLjVrW5VrLTSSsVPfvKT4Yk3bBeOPfbYxOlvcYtbjPWDc6ObbaYDf3e4wx2KV7/61cVNN93UlcCS7Ol7EW+kSsQhYz3iEY8obnOb2xQZ+LMNvHEynv/7v/8rHvCABxTf/OY3k6zeDer7Ar2Ecfvjjz8+cftb3vKWmdtnEWfkGMBsiTaHHHJIYsLdaG5gt2/QGzCQ7bfddtvi1re+deb2GfQjBz3cPexhDyvOO++8pK7shssvCvRaFb3oaaedlrQ2uplxdnM579kTscjyr3rVq4rf/OY33eI9xetZT19OHfB/9atfFTvttFPW5GROPzKmR6wRNtpoo+IrX/lK17J8YHdRoJfI3/72t+Lkk0/OmpwM+pGBnlRBlj/ggAOKP/3pT12pKQPwzosGPdn+2muvLfbcc8/CgDZrcmZPzBi1aEmW33DDDYuzzjqrZ8APBPREHC2H3n7ZZZdNwB81EXJ+s9XQzL7uv//+SWNT5uDdXi+a08sI8H/0ox8Vu+++e5bts5gzNDGHFEG0echDHlJ89atf7UljU24QAwG9BBmgHXXUUcVqq62WRZwM/KEAH+Bx+ec85znFX/7yl75EG1hNoDfRtNiDbH/VVVcVT3rSk1JrzLL9bIkcoxAxyfL3ve99i69//et9A36goA/Z/kMf+lDi9kbXoyBEzmM2Ghcmyqq3X41NmakPjNNHoj/+8Y+L7bffPsv2WcQZKNMj2iy//PLF5Zdf3pX5cOCx7jxw0NPbH3nkkcXqq6+eZfsM/IEAH+DZzL/85S9P80KkisUcAwc92f76668vNt1006y3z6AfCOiJyssss0yaD2L6sthj4KDXChUMt1955ZXTzFmWu2dD7h5GPZPlma+/7W1vS9aRi+XyGsxQfFkqGCOgTTbZJMv2mdsvitvj8pjnz3/+80VpbMq9w9BAL2GztHe5y12ybJ+B3xfwcXmWlLg8G5tBHUMBvcLh9r///e8Tt8+rq7J404/oYwC77rrrFpdeemkSSVoPegXUok466aSkX/UB/Xx4fmc2GwwuT7Q59NBD09rXQcjy0WiGxullQJNjLe2WW26ZV1dlEacnpmf2dYMNNiguvPDCRevlA+xxHirotU6anM9//vNpQKv1Zs49m5y713ony7/xjW9MS1IDrIM6DxX0Cgn49PZPeMITsiYnc/sFmR7GSBTeYostiosuumigsnw0mqGDXkZmaU8//fTizne+c9bkZOB3BD7Ak+Vf+cpXDmT2NYBePo8E9ESca665Jllg5tVVWbzpJOqQ5TfbbLMkyw9y8Dpy0Cu8qd/PfOYzaTo5+8nJwK8DPtHGvM5LX/rStD6jDNRBXo+E0ysw4F9xxRWJ22cfmBn0VdCHLM9r3ne/+92+V0V10zhGBnqFidVVq666apbts2w/T7bX+zMqe/GLX5ykgmGJNnA4UtDT27O332233fLqqgz6eaAny/NJ+Z3vfGdgNjZNXH+koNd6+RH8wAc+UOD2RunVbq7t9zgS8Ywe2UoeGqny2bXg//LYhVZCxbILL8eP9+OZ+7L4p9tHJ8/ueMc71ubnHaGaZ9tpGeXzjcpPY7OYta9NIK8+HynoI3OeEyZ1dZVNAyxmsDEFB7bl8NnPfrYQTjjhhOKDH/xgsg6MigXchz70ocVHPvKRFKf8Xlx712B/n332mWMGACHPt7zlLcWnP/3pJfIrv/vhD384meFGnpNyxhBWXHHFtMZ6mGJN4G8soP/rX/9aWEt7r3vda+Jke9z0lFNOSfYg5h/qgu8jxt373veeAy8uzxzjZz/7We07kQ5rwne+851z7wG9PL/xjW8kS8OIVz3Lk9MtDWRSwK6cAK/3e93rXjcwe/kAd9N5LKAn21933XVJH0sEULGTUlFEjM997nMFkDUdvs+8xH3uc5+572Jpus022yTfn03vea5C3vOe98y9BxREn29961tpgNf0Lg7JrygATQotlVMPaAALD+g2imMsoFdBJqzI9hYIlGXftldYBv3g1K2YnbHKe9/73pFx+WAsS0H+qA/A/+Uvfzlxq6sy6AcHelx+lVVWSVx+FLJ8YHwsnD4yN0t79NFHp+5tUkScDPrBgD7GKocffvhQZ18Da+XzWEFPhrvhhhsStzfQmwTgZ9APBvTGKuutt15x2WWXDcWSsgzy6vVYQa8wuD0VHzBNgmyfQb940GNuRJv3ve99icuPUrSBubGDHre3d1Wsrmr7QJZ2hPbGDtUabF0wAWdP06rKcquttip+8YtfdFRZMtU47LDD5jQwIQZYQUSdWVVVxj1tkrTLE1ttpSVNFk8Zo5h9rXL5VoA+NDlnnHFG0jG3XcShB//EJz5RXH311cktBdcUdcEWj+YhAnh6Mcvf6PhtGVMXzj333OKcc84pXvCCF8y9hx6AbFLr7LPPrn1PWt7VGImJkWdbz3rLd7zjHYVt7sdxjJ3T+2jA//Wvfz0Rs7S65TXWWCOt0jfDKvCXHtdxvv/97z9voij07d7lebdT4LOxDFgN5p73vGfS+3d6b80110yTPeV323StAQt6vG9/+9sjl+WjgbUC9Aqjm7ZToYmYtnP7NgFpksqi4WMaZl8Bb9SyfOtAb7LKFP2Tn/zk7ANzSi0wyfLWvppdHhfgAb81nB4RDAoZUFk901ZNDm6lbDiWSqwL5OqqClbvFZzOO/6ve9ez6rd7T3yyvTFFU/C/uG3l/swNDj744NSrB9cdx7k1oPfxgM8CE7dvqxYCKMnwm2++eZJNaZ3qwqMe9agkqgUAAZms/uhHP7o2PjlXOjjh/e53vzngaizy5AV65513LnbdddcUdtlll3RfPvM4oXFEnm05R4NHkx/+8IdDXRXVTSNqFegVmD21Wdq2rq6isjzuuOOScRdVa1P4/ve/nwa8ATxg1FA06qZ3TNQZ0DMjjvcARp5nnnlmUllSaVJd1gWuVtrILPQ+dp5kkk2MHadoA2OtAz29PbPctu5dxcz31FNPnVvsoAIF5Y6ziv3pT39arLXWWnPgxa233nrrOTuTiBvvxT0d/7vf/e659wCGio9a0n/iVYM0BN7k2mhlqcHrHc2+Kvu4j9aBHlHI9uztcfuqfBsccFzncczIytMWkujS6aD3bhvo9VTGaK9//euTLJ9B36EGiQE77rhj67rrcYH+/PPPnzjQhyyPeZkt1hu14Wgdpw+imFa35K5tq6sy6Lu3vSGa6XmIa3qpNnB5+Got6HEFq2loM4g4uMa4RJpyvuMCveWCkybeUOvi8gbuxjltOVoLelwBoVjitWl11bhAf8EFF0wU6DEp8wkWs7eJy7ea0ysc4FtdRbfdFlVcLAynWg2tSfWMk3TS3lTja9wRmrQ3OD2RL+LVne38Amjlnmkc1wCPy7M/Mrhui1gTPU1rOX2AHpegt6fnbYOIQ0Y98cQTi9/+9repQm+66abkGUHlCu6dTcIwAAvQAQE9PdeGNqFrCnTt9liK94JjfulLX0reDjCBajBIFKRNNRrvjuuszDQ2rFE7LaAPEI763GrQIwauCGAbb7zxElP746hUOud99903mcYaoNUF3gxe+9rXFne/+93nAGhcQm//spe9LKnvDjnkkKIuMMbabrvt5t4DIHnutddexYEHHpicm0qjGjg93W+//RKHHQddIk/l9a2PfexjU2+nR2rb0XrQI5hCcq5Enh633l6l0kooB+7dFPwvbhkMAYimd+K59OM9537zLKcxqmtlx+U//vGPz03gZdD3QQHc3vT84x73uFbalowKUJOQD/Fq2223bc3sax3cJoLThyZnUlZXTQI4h1VGIh33gpZTtvWYCNAjHuCT7fnAHOdgjQhCQ2Kxi268Liy99NJJFBM3wKXbV27an7p3PPOeUNbAEG36zTPyHsU5RDCz6D/4wQ9apZevNr6JAb2Cx+oqsj0ij6Iyq3kA5JFHHllcfvnlyeGoBeDVwGCOgdhqq602V0bApXq1wLsa3/1VV12VwpVXXpkGwZGv75Qnx660M3XvxjObGYxLtatRs5c3iAeqtqkpy8CfKNDTBFiEzb99daAYIBn2Gae2rJGJL+LVBWpWIG7yhlD3Tjyj4qvzhmDht/8iXt3ZzGe5lxg2Lcrpa2x6YVy+zYAHfrQbi1u/csvr9hoxTd7wk0MMqGo5ypUwrOtxzcied955rZ2R1RutsMIKaX5Bb9z2Y6JAj5iATwQY1+qqDPr5BmcAT3Sz8ku9tFEvX22EEwd6H0C0MEvLLcawOHpTuhn080FPzLQM0movquW2izbwM5Ggx00M3vbYY48k4oxyUJtBPx/0ZHlrX3H5SQD8xII+ZHv64FGvrsqg/x/oMZu73e1uBc/DxlqTckwkpw/ijmN1VQb9f0EP8EQblpR2QJkULj+xnD5Az7zXbiajXF3FynIhB640GMSvqsqSiw8qV1yxKfim8sJw4JInlWUnB67yNHk3Kj09zRn1LR+bCy1uifpqy3miOb2Bk9VVwKQSRiHb04N/8pOfTN7YmAHXBZyPF6+yA1caDpaiJq0uvfTS2sBtiAkmrjJiIO2bAPmII45IwLdA/Gtf+1qa5DLRddFFFyW/kBdffHF6PqrZat/j+9jwT4LGptzgJhr0ulQEt2fRPe5xj5FYYOrSw5yAqNMUcGdxy+AFFAAuv4Nbxn1cV4EbeUpTnKagQZbzjLwHfcZg5MUDc9tWRZXB3XQ90aD3UYBPZOABbFRd+6BBNGnpse9/8IMfnIzKJkmWj0YwFaAnH7OHuetd7zoSEWfSQDrI8hK32NjY6HmSNDYBeOeJB72PCHv7Rz7ykWl2cBSyfa9AUqYQU/RIxAPnukAM6jX9UcSPb7AfLg/TkybLB/CnAvTReq3JJB+PQq7tFWSATJtjSZ+BajkcdNBBheCZZYDW0vaa/ijik+VxeR4OGL9NomgTWJkYg7NoqXXn4PabbbZZK1dXkYOt/LKTOLVkU7Cw/NBDD20l6A2wd9ppp4mafa3DytRwelzHx9ChExnaJuIATNWBqzJXA20Im/RRcO5e8+B/SG/K9mmSj6kBvUrA7bm7Bq6q2q/XCh50fOUhC9PhdzpUSNtAj4EQbdg6TYol5UI0ngrxJj7SzCT9Mdm+Tdx+kkFvjMRe3uzrpA5eAx/OU8XpfZBKobe3a4fKagvwJxn0xEU7oLB1mtTB61SDXqXQH9u76s53vvNYVlfViUaTCnpMw7oFNk6TqpcvA34qOb2PAnxcCXcCtjoQjvrZJIIe4JX7iU98Ymu9lVUB3c391Ik38dEsEq2uWmWVVVoBeipLA2x+KIlgTcGYpC0DWeIh+r3//e9PSoKg7aSfpxb0QEXTYO8qHGvcsr3JKf4dOXats8yMZxrFm9/85lY0VAZuvJVdffXVUyHLR2OdWtCHbG91FW417llaKj+rvHbfffdin332mQtPf/rT564933vvvYsNN9xw7KDHJGhs9JbTIstPPejjAzllasveVYAE/Bqg4Lrufty9kvz1TGa3LUyZBo1N4MF5ajl9fKTpfntXrb766mMXcUY9eO43Pw2SzT5LSgCZtmPqQW+Wlt6eXxZcddxctF8gjvI9g24iln1p0W/ajqkHva7ZoNbeVaNaXTVKgA46L4wBlz/nnHMmclVUNw106kGPCICP2z/mMY/Jq6uW+p8Lj7oGg8ujE7Fw2mT5aBAzA3oaCKurlltuuSziNACf6MePzemnnz51GpsAvPNMgN6Hkk3pwjfZZJPWrq6q47yjegbwBrC77LJL8jBBJJzWY2ZAr6v2sezByawqeFSAmoR8yPJ6wZNPPjlx+WkVbWaK0we3t3eVzRHaug51XA2EjY2Js2mbfa3rrWaG0/v44Pbs7du4umpcgJcvS0q7nRjATvsxU6BXmWR7O3ZsscUWrVxLO2rghyzP/AGXn2ZZPhrzzIHeh9PkkF3btrpq1ICXH1ne2lf7vs4C4NX/TIJe5dpWfocddpj5AS0xb88995wJWX6mOT3ZHre3usrWmLjdOLjsuPMk2qyxxhrFxz72sanWywfY4zyTnN7HAz57e35c2rK6apSNAOBj7avZ6lkRbdT9zILex1tdRZYl044ScG3IyzwFV9tHHXXUVBqVqd+mY6ZBj7tZS2tfWpxPaAMgR1EGE3Q8RhjbTPNEVB3wZxr0KtuaVP5c2rC6ahRgl0dobIxppm1VVB3Iq89mGvRBDKurZkW215uxpNxuu+3SfMU02stHvTadM+hv3pfWWtpZWF1FlucP6LTTTksDuiZgTPPzDPqbZ2lpMPia1PVPs2yPy2+//fYF78izyOU15gz6m9WXAMC/yzTL9hq0AewFF1wwtauiuumhMuhvppJB7bXXXps8ANBfj2pQOap8Qpbn9W2SN1ToBtQLxcmgL1GIJuOjH/1osfzyy0+diIPLr7jiisV55503cfu+lqpoIJcZ9CUyEnH4j5+21VW4vPUDz3zmM5Mfm1mV5aOqM+iDEiV7e7Yo07S6isbGWOXMM8+caVk+qjqDPihx8zm4vdVVNB2jkrmHmY8xyrOf/ey0I2Dlc2fyNoO+Uu0GtPZ9sneVbS+nQX251lprpe8xgM1HVlnWYgC3593LboCTzO01WKLNc5/73OT3Z5YsKWsr9uaHmdM3UIcmx6wl2X5SuT3As5c/7rjjZnYiqq56M+jrqHLz3lV8xduFA3iGKXMPK+2Q5a+77rqGr5zNxxn0DfVOtsftY6dCeu5hgXNY6a699tppd+9ZtKRsqNb0OIO+A3UA3+oqa2knaXUVcQyX32uvvZJXtyzLz6/kDPr59FjiLvauWmmllSaG0xPH1lxzzeLYY4/NsvwSNZq1NzUkmf8IV2Bvz2ZlUga0XJsEl9db5WM+BTKnn0+PJe6Ahn7bbia4fdsHtcYevJWdeuqpM29js0Rl3vwgg76JMqXngP+DH/wgaXLaLNuHLG9Hxd///vczt/a1VGUdLzPoO5Lnf3/++c9/Trtm8yDQVjFHL7TMMssUZ5999syuivpfjTVfZdA302bePzQg11xzTVpd1VbQmz3eY489ij/+8Y95ADuv9ubfZNDPp0fjHREH8I844ohW7l0Vq6K+//3vZ0vKxlr87x8Z9AsQqPw34P/0pz9NO3+3aXWVnsdY4xnPeEZyaVIuc75ekgIZ9EvSpOMTfnI+9KEPtWp1FS5v58QLL7wwa2w61t5//8yg74JI5SgsMNmyPOpRj2rF3lW4vFVRL3rRi5LGZtZXRZXrquk6g76JMg3PiTiIZi2tSaBx6+3lz5Ly3HPPTeVSvnx0pkAGfWf61P4b3H7TTTcdu729scWLX/zitLa3trD54RIUyKBfgiQLP8BNra466aSTxr66at111y2+/OUv5wHswtU2FyODfo4UvV3g9mY9Y3XVqHX38iPaHHjggdmSsreqyx7OeqTXvOi4PXt7q6tGbW8P8A984APT7t4aYJbl51VNx5vM6TuSp/OfJqv4yRnH6iqL1vfff//Cvrj56I0CGfS90WtebNzVqqQTTzwx7V01ShHnIQ95SHHGGWdkvfy8GunuJoO+Ozo1xgL8n/zkJ2lXj1FYYIa5wbOe9aysl2+slc5/ZNB3pk9X/1pd9YlPfCLZ2w9rvWukayJqnXXWSfbyWY7vqnqWiJRBvwRJen+AiFdcccXc3lUB0GGcbajAxua3v/1t7wXNbyQKZNAPAAg4rtVVdjMZ5uoqoo21r+ecc06W5RdRbxn0iyBe+VXA/+EPfzi0vasMkmls9tlnn2wvXyZ8H9cZ9H0QrekVq6vsZrLaaqsNfHUVvfxyyy2XdhHJLj2aaqC75xn03dGpq1jAyN7+8Y9//MBBTzPE87BBc7ak7Ko6GiNl0DeSpvc/iDiA/573vCftQo47D2IwKx0WnVSjKixrbXqvm/IbGfRlagzgGiBx+80333wgXtHI8rj8C17wgjRYHkARZz6JDPohQMDqKrL9CiussGgxh8Zm1VVXLWLt6xCKO3NJZtAPocrD3t7qKqJJv+YJ3jMZdfDBBxc33nhjluUHVFcZ9AMiZDkZIg4LTGtpTSb1K9t77773vW9a+6qisixfpnL/1xn0/dOu45u4vV3Icft+dzOhl8flf/Ob33TMK//ZGwUy6HujV9excWUWmJ/5zGeS2+x+RJz11luv+MpXvpLS6TrjHHFBCmTQL0ii/iPg9jfccEPahZxs3q36UgMh2uDybGyyXr7/Oqh7M4O+jioDfIbbn3DCCT2trgL4hz70ocWXvvSlDPgB1kUklUEflBjSOVZXmaXtdkBLlufhIFtSDqdSMuiHQ9e5VMn29PbHH398mlXtRrZ/+MMfXpx11lnZknKOioO9yKAfLD2XSA3oyeRXXXVVWkvbSZNjIoq5gbWvN910UxZtlqDmYB5k0A+Gjgumwn320Ucf3XF1lcHugx/84MTlF0wwR+ibAhn0fZOutxcReqHVVXe5y10Sl+dPJx/Do0AG/fBoOy9lYs5f/vKX4iMf+Uji9kSZsgrT/X3uc5/iG9/4Rpbl51Fu8DcZ9IOnaWOKgG/vqh133HGeBSbAcxi13377FRaiZL18IwkH8kcG/UDI2H0iFoF84AMfSKurgtOT5Vlkfve73032+N2nlmP2Q4EM+n6otoh36O1pcrbbbrs560v28i9/+csTl9cb5GO4FMigHy59l0gdqAH/8MMPL1ZZZZUk5lBT/uxnP8uropag1nAeZNAPh64Lpmrpn9VVd7rTnYpXv/rV2dX2ghQbXIQM+sHRsqeU+MnB7VlS/vjHP84am56ot7jIGfSLo1/fbxNxfvGLXxSf/vSnsx+bvqnY34sZ9P3RbdFvke2pJunuNYA8gF00SbtOIIO+a1LliNNCgQz6aanJ/B1dUyCDvmtS5YjTQoEM+mmpyfwdXVMgg75rUuWI00KBDPppqcn8HV1TIIO+a1LliNNCgQz6aanJ/B1dUyCDvmtS5YjTQoEM+mmpyfwdXVMgg75rUuWI00KBsYCenUmEMiHj2SDsULpJqylO+fkgylL+xnw9fgqMBfQMrWTsHKBydi8s1gAr0pKO9OqOpjjl5/G+Z/mYHgqMHPSAZMW/fZkuuOCCtHgCqDz/1a9+Vbz3ve8tTjrppL5d2kmLrfrZZ5+d0rKDR/UQh3UjX5Ef/ehHi0svvTRF4Yns+uuvT/u08lpgF/Avf/nLyd7df/mYDgqMHPTA87KXvSztifqWt7wl7bABhDYxuPjii9O2kTvttFNx5ZVX9kVhaXGs9K53vau4/e1vXxxwwAFLrErC/XkT9h9Hqccee2zqeY455pjkhuNud7tb2iht5ZVXLu5xj3sUu+yyS1rO11eB8kuto8BIQQ+QQP/Sl740bSvztre9LbmvC9B/61vfKgDuiU98YnKMhPvjyFzcCTwJhMiBksArPSCPOBH/ne98Z9oMgSNUbjW8awsb8X20+y984QvFBz/4wdTYrr766mKbbbYpOFyyqdmpp55afO5zn0u7iXz84x9PvYdyxrvyk265PBquZzwVey5ufIPex3P/RzmUX5r5GC0FxgL6Aw88sODrBej/8Ic/JGAA40UXXVQsu+yyxQ477FBcdtllySUGEYPLDIEo8rWvfW1ulz3i0Omnn562p4847oHqHe94R/ISvNdeexWf//zniyOPPLI44ogj0kolDUO48MILi89+9rMpL9ePfOQji9VXXz2JMwgTIQCsdzj33HNTOeT3sY99LG2aoAEBL582Gsg3v/nNJCJdcsklqZFx5ycfGyx4xyZs7q2cknY+RkuBsYGe915c+Otf/3rxne98p8DliRlLL710Ar0t5w899NDicY97XLHtttsWW265Zdplb6ONNkrv4JoAttZaaxUPe9jDkksNcZ7znOekhgT0/Mnc6173Ku5973sXa6yxRnH3u9899SRk+F//+teFxne/+90vpcNLsPWqD3rQgwpcHxcOTgzQGic53//y3HTTTYt11lmneMADHpCADLzGI5w2KbN0DznkkNQAl19++eTX5tGPfnSx8cYbJ5Hqnve8ZxLBpJuP0VJgrKC///3vXzzhCU9IHr9wd0DiHWD77bcvgB44gfG8885L56c97WkJuK997WsTCF/ykpckYANXxNGIACk4/brrrpvEKVx+/fXXT+ILLquXeNGLXpQaBO5rwBqgv+aaa5aoBVyc2AXMb37zm4szzjgj9T7GDfaV4n/y3e9+d3LVd9e73rXYeeedk4ikLBw52eL+hS98YXqmLBy1+uZrr712ibzyg+FSYKygB7I999yzAOanPOUpiVsH6C+//PI0uMWRiToagIEvmft5z3tekuM5SOL6equttkraIIAnapRB/6xnPStxdaA0IAXIT33qU0uA/pxzzin4hcfJ6/+A9EcAABVgSURBVEBP07TZZpulBkkjRDxStmWWWSY1FqLKYYcdlhw47bHHHknEEYeoteKKK6beQcMi02tAW2+9dQL+j370o+HWcE59CQqMFfRA+73vfa9Q8YB98sknzxNvAFFj0AMQDfQMtqgkwig4+Z7MTg4ncmywwQbFa17zmsR1iUZ2/sDNjRc0hic96UkJ9J/85CeL6667bh6nL4Pejt9EmnKgZlUOaSiv/DUuIhPxyk6CAfpXvepVSeVK5BFnpZVWKtZee+05sYxmiocz22Vq3PkYLQXGBnoDWZwbB1YI2o3yQNb185///CQWEF9oUqgYeQN76lOfmuRt7wAvzmnPViIENSPRJUBv3NAN6OnsqS9XW221NJAFWCFke70I0O+2224J9DQ1GpIxCNDzUBag57zpd7/7XXo3QE/+N24xFgF64xQNNYN+tICX21hAH7J4k8qSPEybQuwhjnzxi19M4KbfB3rcH+iIIRwl2WcVpzZgFF9DINMTfUJPT6zApTWMEG80CO6xaVf0OI95zGPS/MHee++d1Jny1fvQ/gAs7kymd6+xOhu4PuIRj0h6fzK9xhy9jQYToDeYlp73TjnllNTAjDeyeDPloPd5uK7uHzhNINF3EyOAmBYHp919990T9wYe93T3RIRVV101Xe+6665p5lQjIC8DMlUnUQMnxmV5D5MHEUqPAPTek569Xc28HnTQQQXgaQS4+hve8IYkKsnP2MH7eo6nP/3pqSG96U1vSlog+flPfsBMq+P9973vfWkg/rrXvS6Buwx6Tlq9Ywxg3KKB6sHyZmozAHrgoMemMQFy3T3Qew6I1JBnnnlmugZeG5S99a1vTUDFFf2PYwKyGdwPf/jDab9VvQc9vsGl/7i9Puqoo1KPIW2NSm9g1tVAlGhCb87DGPFIGQw8w0TCvk+0RABt7BCTUa71IsYKGq343gNwIpAGTVTSyKQZnF6jpb2RrkZNFAqnraOv9tnOcaTiTZAaQGTsDBgOZ/cCkMZ/AVhnwXvOEd+9hiN4Hu85Rx7l9CMd/wvxTjmOBiI950gjyil++f/Iz/v+i3KILwToDVqpVTUQjbKarvfzMRoKoP1SfkZ5BGADSJF3ACXOnpfjlq/L/wWAq++V7yN+PKuey2WI9OIsbhyu47lz3X/lZ1SWxCBjAaCPRlF9N9LP5+FTYCygH/5ntScHnN2YgKhEawPs+RgvBTLoh0x/IKf3p2EiFpV7gSFnnZNvoEAGfQNhBvkY0CcB7FFODVWI8U+cJ+Ebuqm3DPpuqDQDcQA6gB4DdaIZbRixjOaMRmoajrGAPggcHKXuPCyuUpdX9dmw8m4zYKhPqYKpfQ8++OA0Y8wOyZwEg7lnP/vZyRS6zd/QbdnGAnochA4+Ajv1uI4ztd6gD2A2Ixp5OMs7gnvaFo1g1g4Le1iM3va2t00z2eyWBDPMt7vd7ZLph4YxDcdYQG+hxz777JPMAsygVoPJG5NSgwSftICaiUE1P/dMFASzrhrGrB2vfOUrk0lFAN16B8Fet2aTmX5k0C8CFWxWGHfhKhZ6BFdxHcGSPRM7gxI1DMbY5jMrkF/kUz6zo2EEJ99ZO4g06iM2dC6fPe8X9OovQltoOhZObztJCzIQMzhK9cwKkREYsC72QHTiEgMzNjXVvNzrxsmuFocMQ7Ra7DcM+/3Fgj6ArUcFqhgMYyAMAw2EWb+24RgL6NmxMBZjJFbmKOVrhmFWOJnBXOyhQhCcNaSuupxPXAP+FltskexwEGXWjsWCniGh+Qi2SSxTLbg3IYfRmJyzmMdCfHUx7mMsoAdkvm3YowToqmeDqje+8Y0Dka8RmgmARSjEmWpe7oGeRaZJpEGOJcZdwd3mv1jQk/dZl1oDbN2w3dCZgRsEq0trlFmzzizoiSwWX2+yySZzg6UqEHHkJz/5yX37vylXNhBzCUJ8Ic9X8wJ4FcMqU4NsQ8WUyz+K68WC/oorrkjWo+iIxmgadHbPLJxnizbQdiyc3ocDFw0OTlAmUJlQVhbh0Is55EVFSjODyzflZWAtrzZUymK+t993Fwt6K8DQGLOq0jiD/uZawX3ZqlsEYhAZYI8zwln5ZFXTYrivXoW9vKV+1cqIvFSUBqj3mdVjEKCn+q0bM2XQ34wqHNViDgumm+RsjYFvmsXI2RoMWdKywAB59Uz2pKrkKW1Wjwz6EdQ80FNnWZdaxx0AE2fm3ImnhH41KoC83377JZm9Cva4t2TwtNNOG4imaASkG0oWGfRDIev8RIGemstaVm49AoDlM9BbT0rVJW4/hwHWjjvu2Niw5BcOY+vmBJRzMaGXMnfKp5d0xG1KqymdfkEf+ZRl+nIdui6LN8TaeMe5XNamsg36+VgGsvERMjcBZSF2nbztmYGuBdv9ih4mm3DyOhEq0re+Nta0qggVo2xEI6YLZH1rbq2ppYPmfpDvHOt8BdfW2p544onJUxqxzbyA9zWkqNz47urZ/3q9X/7ylylwHBUhnjGNWCidSNfEkPcijfLZc2Wr2vb3AnrfROQs50E/z2NbHZ2JqWbCMbhyWcrX0lqMGBvf3s15rKBXicDMs1jdYBaXMJh97GMf25fXAB9nATbfNHXpe2YSzGLzABSg8qbG9oeLEgvA2etwNUjFatmfd7jwtgxQcO2ZeYcNN9ww9SzPfe5zU94WvytHcLi6SgEifn04sdp3332TRSOrRsG958pT1xPVpccFincijfJZehanixPfLI1uQe8dNOLbJ/KQpkHsmmuu2agS1mMTZctlcW3SSkAvdk8a47CPsYLexyGgSQ1yfRMwuc7g2xJwuj3EZQvOYRSOXteT4Er8UH77299OyapQHNf8AHDLV0/DXEL5NEDBexF03XHt7H9xvWdeQIPlIYHPyqbyq+i3v/3tqXFGfvIU3BP/zG52CwhjIA090iif2RcxF0bPciPqBfR6RWbHMfmkjL4ZLerojHmpW/SJb6p+p/ISM5mAlBtjt/XdS7yxg14BdI0qA9Gq8mBwe6pLcbsliLgcNAFdXZqeqQAciggTB6KHRqmpApvSqz5X0cCgN9CQOKYqAy3y1PD1KoBQzdO9cvIB1O24horWJFG1PO7RmP0REaxclm5Br+EyI+GxTQOvy6OfZ+r/mc985pyYGbQZxnnsoEd4oDMRhRPUEcxzoDHJ1MQtq8QBXrJ2J/seciavZGUw4aZMm+VZBWBd2RZ6BviAhpPx2FZntpxBv1RSWLDHmglOD8TAzNtYE+cAGuA1ACtzpyrQy/c8h73+9a9P3LMJmLpoPjO1/DhcE0dw6DpxS0MQ/CfEfVMe8Vwj4g1Nj1XtrTLol0pMIRhQlT5RN4M6j53T+0CFsFQN0AIk5TNwkR/5gCwDtBMRmLJyzd0pTQMrA+ly76FRse4kHlRBr/ERQZSFnI17G6DJY6Fewf/e53y2qomZdNAv9O3lugwmUT77H1M77rjjuh63dKr7hf4bO+gVEOhoEwz8qkBDEAQCLFoCAFnokB47Grt9AFqZ6K7lAbA4OgKUOQvQ4/40EWR76k5+9Jkls/FnKsv6E1fiUpB3ZKaz/ieiaRB13xDfoaFxa1jusSYJ9GhFBOEXlEWlQKvFdskAue7b1Z9xCe1W+R3XtjxyZtZ9/vnnz6PLQvXc7/+tAL3C434GMk0iDmICVZVLVj88KoVdT9MYQUNg+mqThDKXl5Z7+mILpPmkpAkhVtFYEMPI/0BK9hdcA4FymUTj2Rj3rza0uGcOwYFsufFOEujRSION70YTwcBYQ6ijubpjZUm040M03imf0VW6ZQZUrdtB3bcG9ECFKHUajOCSukCanjKXrBICaDmC1SvUcXlpaVg4uAmRKugRXfoBaJXrGqEE/3mnHDzzn0o0GYbrBcirZ9+gd9BQ4pg00KOR74/v9u00RkBfx7QC9OZDyrQMmgZdRwF4NJffyH1ZRmWXz4hBxWhjNN1hFSzuiQ50+kDSdEQFUKnVdbXS0dWaDIlZ2Ka0en0OCOYGmD3Uld8zYwViFbVfHJMG+ih3+cwMIVtZlinSxTWuYQKHurAJ9MBKJuayo4krABBTAQ2kKR06YYvTNbSmdLoo8hJRpCV/+2g1gV5PRjVHHIojgz4oMZpzazg9Lon7xW4edaAhL5KJ9QhNYMW9LfvTQOpA7xnNC5WmPAd9KBfPAXXl9wzomUuXN2PIoB90LXROrzWgBxYgxKWBuw6wZHQ7eNivtQmwnDU98IEPrJXnpSltvYmBU1PD6Uyyzv9Kk1qyE+htCZRB35mOw/y3NaCPj6QFsAly3SA0QEtDQhyqglZDYCxGbq5rNGR8nJaVJNGmmyMao7TLAzeEqwvSteNhBv1SczRQlzO/RrYT2GIvqKZJJWC2sIQdS5nbAyfA2Zi46V2gZ3fCpBVgFzqkSfQgduHM4b+FjX5TUC6GUxn0GfQL4Wvuf2IHG3UWjk3AIdefcMIJ87i1BmB21X6zdWozaRFtttlmm6QrxrWbDmlRP7JEZL/DvHjzzTdPmiUbpWk4nYLxRFPZ9TRZvGmi/Giet068wa1jo+Im4ACcmdHywhIgxn3NtNaJRtLSGDghwr3LvUSZ1Li7dIlAdgin6fGeNOtEpqYyNj3PoJ9RZ09lkFWvgdGkkdnZJuAQX7gFvOqqq+Ze13r1EHU2M9IBWO/R/NSNByQE8NI58sgjU+PBsfUOxKJBAF45Mugz6OdAGxchR7NvwWXrwAaIdulmpBaHHoJtDK5c9w7gbrDBBmk7+3inetbg9BZmaxfi7PJoCk2NNYN+hp09VcFWvQf8U089tVH1GANSq43EBVYGa+xp/FcHOlyeqXF5UqiaL7HHnrVNa3alC+jy0PAiaGhC3DeVIYM+g76KuXn3tnyx0BiY6kAMfEwJgBiXZ+xlhVJTXL3GQh6JLRXUWxBBmtLReB7/+MenCTDmBNVghZOeou59z7J4k8WbeUAv31ATWjDcSROy1VZbpV3DWe5ZC9tk3aiBMH+lw9dA6g49BqOp9ddfv7ahSYOxmBlj3nnZ2FBjRmCZGddsUDLos8qyDmcdn1FdWlTQyTMZ9SGb9p///Ocd3XATN2wvYw6gSVUJ9Oy5raYiplRBS8bH4bkCMdiVDrGqGjxfyAxhGCpL5Ze3Rs2tSlNv5Ttov/pdI9tUadngrIkyPTxXgVY/4dBVAMY9TQ2fOOR/3gvqwCouEYl9fCfTA6Dh14ab6bp0iDXPeMYzEpcXt+nw36BBL+9XvOIV89byVvM3HrHWmLqXI1XgDjqVzxn0LTItrlYi8ABp2GgTL8qV5xoYTPmT7dnk1A0gVTK/9Oeee+4SZgvlPOX31a9+NQ2em0DP/00nJ6/S0Av0Y4ZgUI47132n8mj8Bus4uRALV/iFx9nNK6AVLt6ktkWzcYBevVgVZ7YcM0On8uG++qz8/6Cv1VEr7OnrPozowLisE6At6Qu/83WAweV5IbDlT6cD0XHJJvFGOmyCLr744tpkvM/YjfhjrFFtoHHfNJAFiCbQ+y5jG75vrOay4gvI+dznbVkvx5Ra46ijQeQ9TNBT9Yar7nJ+rpVJ2YiHTEDKANeAKSPK6wtqCTzAh60GPeKYTAo/NHXExLlwkqbKZkbczeZp8iJO8bZWpzEKbmURC87KDkcFsrWx5pUHMpob9v5mhatljfsm0FtC2GQo513fSQNFLWuhje8CdOnp8YCqrqeLfOM8LE6PqegJlSXyKp/VD5crvKLZnMFONL6ZYoDoZjE+JjeKo/WgpxHZeuutO2pxysStXltBxYsCmbfTAfQ4DtscQKqm417FWWzOxR/53pJEogzObv2u94CqqQFKow70uB3RCoi7AW6n9OvKXX42LNBbR8wnaCdtm7z9v9JKK6VF4lwhRuPVYIBxFEfrQU921Y134p7lSq1eW7pHs9ANQeVlYEw1WU0n7nFUFQe8EYLTBuA7gbIO9MqGU3aaXIv8F3seFuipjYmiPCI0lRFdNGo01Js6x7UelpHfKI5Wgx4BFJCvyU7E7ERkzkpVSDddJ45LdCE+qJxO4G3K03PvNb1bB3qDO5oXDk2BslPanf4LUEkDmOrSGhbo0c6YiJFe07c3lV18Dd5cR1neH1YDaD3ogZXVI1ViN11/EFZc3oTp8aXRDTHFw22YK+DmveQnX5UnBOjqKr8O9MoGNAaoeo269+K7ms7eUV4c1HcbX/AlU40/LNAH7XgeZhbeK+0oK3p10ttvo2g96H0YQNjGHRBVWgSEdR3nuHYPPNR8HDf1cgTXNasKoNIEqCoQ41nkjbOKz6jNoJasb4a4XFZxDUbJvsYq5QPwTZ5Z31vOtwzacp6RL5Cji0GwsYa8w+87bU85f9foQnwzO+1b40BfaVTju/ecBox6tOlQfoFalUaJOIomyhnl9i1x7XkEeTAhYUpSLlNTXot9PhGgV0hb3ONgOAJRJwJixXX5bLBkcKTL7OVQcfLTu9AqUIcaYKqYMgBVKDDQiyuT1VwWnKh07wKf+QH/KWME3TguXPaUHOXTuHmEMGPrWyJfQJE/cGtI8mQUp2wG3ibeaJOIceY2lF+g1hQn8nZ2b09X4xzcOQ6gL8crX4fWxcz3Qod8qR/J9zya4frKHDK8s0Zd/g6b7e28885J3ZtBfzOFo+u0wYFAV75QIJuzkQGkXg/A957KM13PzJkhGvd+bHMMunBVjQKw2OzQ0fPE4D3BPd219y+55JJ0dq0Lt16gTpvkOyNfalATVkCt96AhIvPbZIJ5BvkZ5418A+zSCK5LGyU/+UbA4ZVLAxEvDo014pTLG2WWV9lBVbxXPQfTQAsMx7wC51Z77LFH0tPrQS0A8h02wOO8S2PCKDSYcpmqaQ/qXj6tnZwqf2RUpErtJkT8chr9XMsLQFW4ihTI/e49R0Bx6g5lqJa1m3LFexqAfOQnALZnkad4nY7IK9JTlvKz8rvlOP2UuZxWXEsT51ZmZfctQq/fEekN6jwxoPfB5Qrr5noQRIqKQyiVF6Bzr0IDSHV5NZWxLm71mXelLZ8IkV+nPOvSqZajGifuq/HK9xGn13N8h7Iv5jt6zbdTfOWYCE7f6SPyf5kCvVAgg74XauW4U0GBDPqpqMb8Eb1QIIO+F2rluFNBgQz6qajG/BG9UCCDvhdq5bhTQYEM+qmoxvwRvVAgg74XauW4U0GBDPqpqMb8Eb1QIIO+F2rluFNBgQz6qajG/BG9UCCDvhdq5bhTQYEM+qmoxvwRvVAgg74XauW4U0GBDPqpqMb8Eb1QIIO+F2rluFNBgQz6qajG/BG9UCCDvhdq5bhTQYEM+qmoxvwRvVAggT4WOLvJIdNg2jEA7/8PjsYaoKDMahUAAAAASUVORK5CYII=;" vertex="1" parent="1">
          <mxGeometry x="740" y="575" width="67.02" height="100" as="geometry" />
        </mxCell>
        <mxCell id="PFUlSl_77ustU3yYr6jG-24" value="" style="shape=image;verticalLabelPosition=bottom;labelBackgroundColor=#ffffff;verticalAlign=top;aspect=fixed;imageAspect=0;image=data:image/png,iVBORw0KGgoAAAANSUhEUgAAAVMAAADeCAYAAACAEuPGAAAgAElEQVR4Ae3dCdh2VVU+cJrnwUol5wRL0koRFCUVAVEhwgRJBEycQMERRCUFFMWhnFAQUEFKI1MBUUKQeQ5BK01ESnJILW0ebTr/67e77ve/v8dnfN9n/L59rms/+0zPOWvda617D2effbb61re+1f3Xf/1XSw2D5gPNB5oPrNMH8OhWiLQtDYGGQEOgIbB+BPBoI9P149f+2RBoCDQECgKNTJsjNAQaAg2BKSDQyHQKILZLNAQaAg2BRqbNBxoCDYGGwBQQaGQ6BRDbJRoCDYGGQCPT5gMNgYZAQ2AKCDQynQKI7RINgYZAQ6CRafOBhkBDoCEwBQQamU4BxHaJhkBDoCHQyLT5QEOgIdAQmAICjUynAGK7REOgIdAQaGTafKAh0BBoCEwBgUamUwCxXaIh0BBoCDQybT7QEGgINASmgEAj0ymA2C7REGgINARmRqb/+7//2/3P//xP99///d+d9SzZX+/LsZY3BBoCDYFVRaCQ6X/+539uWH7EWRNkSNMNrCeFYJGs9bY0BBoCDYHNAYGZkCmSRNBJIVK5Re6cEO3mAGTToSHQENiyEZgJmYYs1T6T3EhKbTTnhGC3bDM07RsCDYFVR2CqZOpidR8posx2aqK2rTcSXXXXafI3BBoCNQJTI9PUNEOUtmsyDXlmX2qotTBtvSHQEGgIrCoCUyFTBKl/NERq/d/+7d+6f//3f+/+4z/+o/uXf/mX0sQHknN7a7CrCl6TuyHQEGgIBIFCpr73PM6CCEOY1kOM/v+Nb3yju/3227tPfOIT3fnnn9+deeaZ3amnntqdfvrp3cUXX9zdcMMN3W233db97d/+bfev//qvnf/kGvW9s0/eloZAQ6AhsCoIjE2myA0BqnGqefqj9PWvf7277LLLule96lXdXnvt1d35znfuvu/7vm8tffd3f3f3Pd/zPd0d73jHbtddd+1OOOGE7vLLL+++9rWvrV3DdUKi+lTdxz0aoa6KGzU5GwINgbHJVI1Uk13THaH+8z//c6ltvvrVr+6233777gd/8AcLaX7nd35nFwJFolLI9Yd/+Ie7H//xH+922mmn7pWvfGV35ZVXdv/wD/9QaqoEQaR5QJUacDNRQ6Ah0BBYBQQKmSLJUYtaIqJDpM4/99xzu8c+9rGlxvlDP/RD3fd+7/cWEkWm3/Ed31GSdfu///u/vxxzXkj3R37kR7qdd965dAX8xV/8xVotVY00pNpqpqOs0o43BBoCy4LA2GSqpojo1EjPOuusbscdd+zucpe7dAhSzVNt9Lu+67s6BCq3HWLNcaSqpur4D/zADxSS3WabbbqDDjqou+SSS9aIOoTqnm1pCDQEGgKrgEAhU033UUvIVI10hx126O5whzus1TLTjFcLRZRqpohUcgyBat7Lkazaqf2O23atBz3oQd2b3/zm8iDLAyo14Eamo6zSjjcEGgLLgsDYZKq2+KlPfarbZ599CvkhQ6RZk6d1hIo0UyuVp0YqV5N1HkJ1ruO2NfvVdA844IDuuuuu6/7xH/+x9M8uC1BNjoZAQ6AhMAyBscnUg6LXvva13Z3udKdColtttVUhQUSIEFPTTK00zXnnqX0iUudar0nUf50jR7TOe8ADHlCGVhlGRcBWQx1mwnasIdAQWAYECplqUteLBz8OGKLkYZP82muv7fbYY4/OE3m1SqSIBPV9IlDrG00hYsTsPoceemgZt2rQv4dSasd5EJZ+VTmyjczOa0tDoCHQEJg3ApuQaUgphCW3D9medtpp3U/+5E+W2mVqoSFTNc71Emk/IlZLRdZIe5dddunOPvvs7stf/vLa+NMQvBx5khGphmAboc7bjdr9GgINgU3I1AZikqyHVL/yla90hx9++FozPX2iIb31Eqn/uYZUXyM1VIQqGfB/xBFHlFrq3//933/beFcP0CK3nNxtaQg0BBoC80SgkKmn55aQaZrUiElt76abbipNfDXSEKl+T9shvpoMJ1lHpGq2/Wqo9rmf++hPfeQjH1lqyLfeemt5QEXu1EzlSDQFwDxBbPdqCDQEGgKbkGlNTFnXX3rppZd2P/dzP7dGeggQwYUEEeskBFqfm5qpvJdQ1Upd20MpyfpP//RPl77UK664Yu3NqZBoq5U2h24INAQWhcAmZJqmcmp5cv2lF154YXmKjwSRntqihPykjZBprhEyrQkVWSPtELd7upcRBbvvvnv39re/vfP2lNpzmvqIdZxxs4sCvN23IdAQ2DwR2IRMU8MLmSIp4z0/8pGPdD/6oz+6Rp6pTaYJXhNgXescd30Qodqf2q9ruZ9tNVbN/nve856llnr11Vd3//RP/1SIX07utjQEGgINgXkisAmZurEn5KmhppZ30UUXdfe4xz0KkakZIjXN7pAqchuXODdyXkg7JGugv1qqcaknn3xy93d/93dr8isQ6qWuvdb723pDoCHQEJgGAt9GpkgHiTog18zXP+l1T83t+lXQn/iJnyi1xJDcRohy0v+qKRuqhdzJYf3ggw/uPve5z5VmvqY+2emAWFPbtt2WhkBDoCEwbQQKmSKdekE4HjzJTWzy6U9/uttvv/3W+i4N1NfcNrAekc6rZloTrvv+2I/9WHnn3/29+0+u+973vt073/nOLkOoFA4hUspKbWkINAQaAtNGYBMyzdNwJOqAHNF6rfPlL395IS8107qvVFNfjbUmunmsI1P37u1yIMvWW2/dPetZzyqTUHsNlg5198W0QWzXawg0BBoCm5CpGlz6S0OsaqhO+oM/+IPu3ve+d2nmI7CQ2Uae5G+EdHN/hGpd7TRJrRnpP/ShDy3jUr/4xS8WMqWL1JaGQEOgITBtBDYh0xBomsW209w3BOnpT396qZ1m5iekihAR2kaIcT3/RaB50u/+uhwQu/3kQqwI9V73uld5e0u/71//9V+Xsalq3G1pCDQEGgLTRKCQacZlIhkEWpOpE9Lc/8AHPtDd7373K6QVIpMjrvUQ4kb+k9po5ECk5ECs2WfdfuT/8Ic/vNRSv/SlLxUdpwliu1ZDoCHQENiETMGBOFNzq9ed+Fd/9Vfd0UcfXd6V97BHbRCB5YEUckRySEye7Y2Q5rD/uke/VP8nZK+2uu2225Yn/r6U6gGVgiOJrik4FCZZt985waS5TEOgIdAQ6IfAt5Fpv5OyD6l85jOfKRM4e3quGW1IEqJCoCHP1AxtL6LWWpNp1pEuuRD/wx72sO6UU04pzf487ZcDI29ShUCzP7X1YNHyhkBDoCFQI1DI1JPuUYu+UxOLmFv09ttvL28eGeuJnOQhKrVV5DqPmmmIsl9e145z3L7UpO9+97t3Bx54YJnV39P+fCoFILaNAqAzUkWk8rY0BBoCDYFBCIxNpiEVzV1jT7/xjW+Ubzbpj/Q2lLeREGtIzHrGoYbM5pkj99SW6/umhqovlXzenjrjjDO6b37zm+U1VA+p6mFUiNTSCHWQC7X9DYGGAAQKmY4zXCh9h/6g6YtQjT/1Xvwv/dIvrfWbqpUi0jwMQrQ1mc1rPWSaGnJ9XyRLRrIqBH7qp36qe8pTnlLmS1VDVXBIdI7e8rY0BBoCDYFBCIxNpk40iYhaG2L5m7/5m9K/qEbnDalnP/vZ3XbbbVf6UUNUSAth1UQ2r3X3lpBpL6GqTSP75M5DqjvvvHP3wQ9+sPvzP//zomdqo41QB7lP298QaAgEgbHJFKHkYYw/IRoTi9jnoY0n/T5tsttuu5V35dVIpV4imxeZhkT7EapjeWtLDRbha/bbd9e73rXM6n/jjTeWJ/50o69+VLq2pSHQEGgI9EOgkOk4JNHb9EWmCFZN1TqyUXP14b0XvOAFZTJpNT9EFeIKkSI4NcN5EG1Itb5X73oIl6ySiVN8e+qkk07qPv/5z5dpCNOPSud6oXuwqPe39ekh0It5rmz/oGPOyfHevP5//Dr75Paxab8l++XOs7i+9ciS/Y5ZF2T1vn7X7XedQefNYz9d4tfRLzpnOzLbL/Vbcq485/fuy/5eDHv/k/OSO+6+8F2GZWwyHSUsIPS9Ip2//Mu/7N7znvd0e++999r7/GqAki4ANVakhcRCsMuSG/Klya+m+jM/8zPdYYcdVmbNyidS8oQfHgyZ2noMPwqndnxyBGpsrfdLCcT6mH31/no95wmAJPZ0TgLUOfW2dfa23zlJfL53f87Jf3J8kPa5F1n8x7ZkexFL5ObvWmfx88hmP9mClfVaZvujU/5Dj+yr/2fdOflP9M7/XNv9cn3nqbyltUi2ZVjIudU0hAkAFAS+WuqVV15ZJkjZZpttComqoUoIFVnNq3Y6CVEjUmNnEb6n/Xe+8527Rz3qUd1b3/rW7gtf+MImjlU7AcO3ZTYI8C3BFEKCNcdNsDnumMQmjiE4vmgonweluqHYzxSNf/qnf9r98R//cffZz36287FIL3B4oOrcdOu4juuFNFzTPscTxO6f++X8yEgm58olx6VsD8qdk+s6xzUWsdT6wCDb5JFsJzkuwVylQ4KlieWN+jE3xi233NLdfPPNne4z+NvneQuecC5M/S/XlrOJa+Y+wcx27if3v2VYpkamcXCKWqckoL7+9a93XkN97GMfu1YjRaJ5SDUJ0c3jXLXl9PcifrLKTY5tJqrLLrusGBlwDC6nL0O3ZTYICCg4S/Ev6/xLwLEDEpN/7WtfKyNM3v3ud3e/+Zu/2T3zmc/s9t9//27PPfcs/fmPeMQjul/+5V8urxfvuuuuxS8f//jHl9EcZkZ773vf211zzTUl0PmwJNgFrHu7b0g7ssT2tqUEvfOcT/7Eh339kvMk95LyH3muPxt0+181Mez+iA4O0d86rOtt5yicxPoJJ5zQPf/5z++e9KQndY973OMK7rrNfBAT5p6rSGxias/nPOc53fHHH9+9613v6q6//voyxtv1XdP9JZi4X3CEFVzsg+cyLGSaSs2UklIUtk5JD6kA4c0pzo2UvDmFsOTL1tQnT4ZVWde/mr5U86cal6qWmkH9DB2nWgaDbo4yIMwEj1yQJdgQ6qc+9anuTW96UwlMk5h7bdgnbXx8MW/qKRC1huqCMg8dHdO/r6/8bne7W/n/DjvsUF49NluaWi0ZJH6NTPh2SDPkEp/nDzlmnaz+y2dynd7cMbEiV6Ojl1od/3L9eS/kp090oq91+ihYyHfbbbeVwscESDvttFMZzWNiIUMN4a5l54UecSPW4Rz84e24/WkNwv4+97lPGWr5a7/2a+Ubb0YKwQOG7h+5grF8Efj0s8dUyJSCUc4FkSeHjzEAkSq970k9+MEPLu/3LyOZ1rVfwVYPn0Kqtu9whzuU2o4hVBwr7/n3A7jt2zgCfIsv8SlYyzUbf+u3fqv4krfZ0s+dh4tywZs+ekGc7qX6HAVnSNb5ClDJ9e54xzsWYnjgAx/YnXjiiaWLAAkiFn6e4Ob/tgV1Clf7+L3c+WpcBx10UIek+6WHPOQhhZC23377MsG5rwH7aKQHoO4z7wXm5E/BRQf6GRKp5o5Af/EXf3GNNPMMRHwgUFiKJVgHY/tsS1p8UvB2jm3XgT1Cdh223XfffUutFRYKG7JI4RwYL8NSyNTPRpY4TO1IHAD4lE6pYp0zqqUal2oYEvBqAlv0OnniCAyN8Bk6iSNwGMGpFP6d3/mdtYJiIxi2/w5GgC/p90Skaiove9nLysNBwZbuIraqg5YNbSd45badV+/r9bdcRy65vuR6CM5IlT/7sz8rQR0ClYsBefzedroG+P/ZZ5+9NuMa8u6X+B5/k9xPoe1h7iJqXvRAVhJCNdva+9///tI0R3Zkiw5qmOIBrsEzGAfHHKMj0sx5csec51hsljiUw989kfcb3vCGwh9qq/BOGuw98ztClq38TGthBNdLaWE7+5I7/tWvfrU766yzSs1CkyAgBvQYI9sBvTbCrNYZNvLUzhBZ5ByeoZWg+nxuuumm0hyJ7tEfrlmX91ufFvarcB3684N66d3nePYpgLVq4KubCKGllslGw3xA0Ar43vNi3zqvrxOb+28C3zWsIzmF6Ctf+cpC7GpKqUQk1wQmf2pOyPS8887rfuEXfmETIq993LXr5N58zOvNWnqzXIK3e5BbQuB088DuHe94RxkqiDT5vMoEPMhHTnrALFhl3TnWa2zr9WAqT2y5HoyDTQoW54RY73//+3fHHHNMeZilKwQ+dOinh33zWsT+VMl0XMEZzM094XvRi17UeeIPrDgywwA2xgCmxBgBujbMItbJQSbBrZnmHX9PjBGAlIDimHSVBBgD1+vjYrbK59VYIB3bltR+EA5MYKMmBDPnfeITnyhNbPjyD4EG7/hJgnBe9nc/cqgVa4afeeaZpWJAVonsdGJ/OsiR67nnnlvIdJic8Wu6WVcjQ2azJATXJndkzbbJ4LW69tlnn1JhoLOY5O/zxhxm7gmXFDiIXf/4a1/72sIhMI4O8viV9Xkt/HchZErBEKon/mqpnFNnNSdKzY/xkKpUk2lIdphzTvtYnL2+rn3kEuQefHiKefnll5daKkMKLgEVh7UP6PbF4PMy9iLvE53ZXMBKIVjr8FDDCFZf/vKXu/e9733dXnvttdYfCucEdXCX1/aYxzpfVDvjoyoBRx11VOkTzYMjNlc4sC+72//7v//75QHNMPniX/Mi0+APc10SaqLSJZdcUkZB0A1ppWIjj2zD9JjlsdoHyKOr0AgBFRldIrCHtzijlzSvZaFkSkkGBYBA+qM/+qPSJ+Udf7UPgYNYJQ7M2eRAnKXBBl2bI/VzJnLZz9D6dgy/OfXUU8tTYEYVUPqK6yALoQi4LWFJ4NK3Jla6wyLOL6g16fWL1t8c4wvBPgElH2SrWe7nm+ycZi5iVYNT+/SAhi/TtyYpQ4b49TC55k2msQX/lHSn+LKv+X7FHLzFmooC/MlOxkXEX+IrOdsn7tjBCzYKNWNY+RDs+Rm/mteycDKlKCFCOAbzenvqV37lV0rzgiEByJgSMpUvIpBiSDlD1oFhm1zk5Yg/+7M/W554XnzxxaWZl4cRIVG5gJNvKQsHZ2dBTG92j+0d85AJ6Rj3eac73algiagEL3vDXbItWa9tMK91/eTkYed0OWhRGaXyxje+sRAqvRSgaqgKURPo+OTPMBn5UAhC7vqzbOazAdzJ50n5c5/73DI0CebRi54SecguXySZBj9ySHxA3JHXV4kNqfroRz+6VjsVY/Na2HxhzfwoqfRIcFnnhJ/85CdLLdW4s5SMnCsALsKguTcDxpgxLnlCpAxrm7y+kPq2t72tjBnktPQMic7T0MF6kTkiZV96C+I0hUOkJ598culXVNPQJ6n2lyY1bGFaYy+I2CE2mFfOrsakyslAxsin9vnqV796k35U40eR6c///M8PlTU+FR1df9Zkqq/x0ksvLQWYJj09FAyptMBcomfwXgTmbJv7wqeWiaxS7KFm7eULD+8Q3LzibCnIFMGEZNRa1OKkPPH3xooAY8w0rQLsvAIoxnRfxozDRw55jOoYWRkcKXhR4WlPe1p5Mweh5GELI3PmLWXhbOxLb/a1LXnY8ZrXvKb0PyqIYJYCCYaplQZ72Ab/edo/94qt+SLZyCjZT26vIL/0pS8twZx+VF0AnkLnGv1y/4+O8lmTqUrLhz/84fKsAuZ0gS0dEGswjlx0jI/3k3+W+8hAPinyJLdPISDBTFIJMw5ZHzCfm8eycDJNYCXIkqutGFeIbLymdsQRR6yNbUswzdJ4g64dA3K0XmdzLP/jeDmehxUGa59++umlkNCvpsYyL0PPw5lG3YOu0Zd9OZ+3aAwzMjwupCRP7RSmcEzND762nSOIgne/vLaVc+vrZ91+KbaqbdjvmvYhFPJEtvrarmMboXo9FZkqOM4555ylIVMVF/irvemagHUINJjJ6UFXWAWXHB+Ejf3OCQ41NsG8zh0P9sOu6Zjz/Ff8S/3kYpcUxN6CO/LII0s3RnhllI9u5PjCyXSY8Ig2TUOlaMalKjU5AEAZDoCADuAx/CjjzOs42ciraWiws7dH/uRP/qQYOY5N1yyMktpr9q16Tk8OrZlPP9v6SL2TrSYhqIbZzTH2ru1uX/6TwM91nMsvXFuz1eQ1CM4rpp4Ae3VRrp+NXXQpKPTiS/X14le5tjz+5v6prdkn5b/6fRUUmpsGvC+izzRdaLqYEKhC3HOJvESAkKJLHQ/RIzoF62Bguz4WnUOUYlTfMszvcpe7lDeZjA7woMhbTewAH+fAnr2kyFPjmnvX97OPvRTC9teyW3ecTOxvoL+KS7qV+J94mzbBLjWZJvg4AqcAhjdgDJIXDMDkyICrARQQveAucpuTCFpycRwOoF/H0B9DgBQYai8hHHpblzaXhS7sJ9HVYGtOjhw5/DD7CArYJZDlah8hPgEIY74giJGkvkuTbBx++OHdW97ylu6iiy4qr6B6z94Td11IasVGkOjP1CQ0kY0JOfxXwJMr5JB7u4/g5XN1cFsnU475H/k0Nw1691DVQ8lherpmrit3/432mSINBCohU7p7gWDHHXcs8g2Sx/3pTB960LvGwD7xZ79knY97qcLD4+c973nlFVCvnhp77b5amkiN7fm9ORU8cHzFK15RXhk1bhTuCj52DLEmZ9/g735kI5N4GqSH44jb3MQKb1zCBxEfTMTatJalJlNKcgaBiHAIKxC9E2+wNMev+3qAzQGBPAjcRe3nfIxORgRiW6ltvlQD0zkZ/Tg8AyfVNdZpGX0R12FDOrGfccUIDh4J0mF2SbNNYMBPsu6/jsnVPr1Db6YixOgBptYMPINr1oOt7aScI9D917v4RhUgQ+/os5l78i33D1nyN/evyYdMIUXrSAKpL4JM4S4hEeRh1jPjuYPhKNyjHz0QHL2sJ+7su+9971uGhpkAyLA291H5gXNwrbG3r05im63EtQoGG/qunJornMmKPMUM/O0jR2wwTAfn+T/s3/72t5dCFBYhVdhMa6HTwp/mD1KGogSMYRgECMBHPp5Cqk1weMYFLoeXhgG8iGMpRePECUpBalyqWY8MT1Fq0i8Bv7mQKX3YUR+iWppXMlPwCc5hNoGVoGDX2FgukNWG1LL4wYc+9KEytpeP8BU4xnf4UQKaXyXQs982rOX+78GFmuvv/u7vdr/xG79RCMP9QqjJY9daRjamm3P8R2vEmFk1rmF60lHKtVxjozVT+tNX7m1DU94hJpgrBAbJQwYYkyGFnn38VazRS7eFD1Hqe9V1oKCEXTAPnnBPgm+wJ5dz5I77P1JVi/34xz9eXoDx5puuAPd1T3JHdvLEDoP0sB8J+4/Xec0C5j6pqQ/invXsX2oyjfMH/BiJ0EgHIEozA4098QcY43OCYeAu4lgCRc6JJY4gkdcTf3NvenuKselH382FTBPQgkSAcHB6Jw2ziUAKyaQwYmeE7MHkxz72sULS/CQ+Ajd+IiVgE8hkSXIs/6vPhX98TDPVG0xPeMITChGxGfuRhfwhPzrYJiv5cjw+af8wPR2PnrnGRsmUbvQwz6tWECKFJ/yHyUNH56RgiM8qGJCblxTMP3r77beX6wdHBVjiFp5Zh7dzYov6GBlt17n/KdAuvPDC8oxBXyu5yZ+YIZ91aRSu9JAe85jHlHf6kX7svR7i7Pcf15vKfKb9Lr7RfQxAwAANYAnocRIlmdqOWf05C1Ji+GGOMgz4WRwjiyBj9ARJnJmsgtG2motaqv4dw4WMZKDn5rCwodmWDjjggBIQdIa14BiFuSAIRohJTclk47p61Ijq2lB8he/wFeQa4oRl1pPDVoDHz+QIIU3VFGpys/OfcsoppU81LaGQDPnYN/a0TVZ2tS+BP0xXviH5b/xko2RKT37kHXbNZljyxRD8IHncP+eSPeNqvTJtGJtarj5IGMMfPsEw2MoTq9kX+9jfu57/1/8R32aZy8c62R6pRn6Y02eQHvb7T2LPA2DPXFTC3I/tp7W43tKSKSVjBEYjrO2UcHLAx6ACSy3Vu7oA5pTDQJ7nsRg9QRf5EjicV9BxFA/X1FJvuOGG4qjReVpGX8R19EW+7nWvKw+H6B7i0ZoYZQfYwAU+Hi4Jhquvvro0BxMQMOIL8Rf7pXpfgrT2H+v5T9YRsBR/g5d1+5CGmrA5NjU76SKRkU6xpz5c2yGkFAjDdHUNKddAGBslUzLrDvNgKLinBec+g+SJPs5FpnRVgHlYZ3RCMINLYjP41fg6L9v5j21Lzs/+3jy2cw8Pr+jxjGc8ozxQgid8xsHVeQoD+jrfAymFokImskwjJsg5EZlSOE5pvXfJ8RpA5zNq+gJzzP5xlcl/eu9n27HcVy3VsKMXv/jFZRgG8DhEnD6AchaOFMcd5FTT3J97uqb1ejv7yCMIlab6pNS+fKeIoeAlp2+27ePMwcd2P7v0w20W+9jZ/VNTiV3OP//8Mh8lUqQ3HaXgQG82So3DfnYLRvarFR177LHl6bDgcg96ZwkGtuv1ers+v/5f1nvPzfm5XnQzqkQXgyClB/klhE9mBGQ9BJZzhvlTjYV1Oo9DpmQSWxb46ybiB9Z1UeSTQa6ZAjskaV9kIqvj0YPMtsmhRUFnNXa4Zwku2Z5GnmsGe9ekjxqw5wr5YgfZyJj4jn70sB7dnJdzne+4LwP4kjK+cB9dCnB0j8SQ7UmWscnUDRjMDaKsfVnq/b0gMED+k1pkXZrlGtPKKWXSBg8k9KVyhjizEtZ6yMt6EqNwpDjXvPIYvb4fORQEmiUertx6663F0HSDnRTCCraCx352qW0zLVxHXSc2ZW/+IKj5jNl8TAZeY1/jzNFDPnSWcq797ONBk8lPDG2iN/3oW/vaKPmmddx96YjozKtpVAYdYjMFhu6LBHT2x+9qO9fr9fnWJyFTeMMkOewRg+8xpZZMDjKkgiF3f7Ln3ojGPue6Pzv8+q//enkY55qJ5WlhOcl1+JdmP+IzqYmuFl0XZCU/ueXRU17vo699kkLQDG/8SasJbhJ/5YeQjkYAACAASURBVFPBchL5xiZTF3WT3JRigAWw9ZporatCp+YQ4Ww713bSJMKOe65rc3iljn46g+SBbvBwwBSkHL52pIDPAPNMHLz33pwijk9WtTIvLRjFwKEECh1hal+wXo8TjIvrqPPcm33JlaDWr6ZpqC87AUsvKRjHBvQUwLZTsDlPLd2bLGqjHDZ6u8ciFr7t3nTVtWTYkwczSJS8tV/Zjs9F30F58HG+9XHJFCZ8Pjk7iE2fSjE7PYKELVxdu5Yp98k9nZdz2MDTeqMa4m+uTf95L3SDN9z5Ot551ateVcievFJdI42uwdpxutEdqTquy+iCCy4o8VPHjfVgOYme/jNWM5+x3CSBEjKUU9CFUhoiUwpL1iXEloAHSqrTkwg77rlkcg/35FQC2pNHQ2iU0kpbjhqnAa5tQAf8eeZxbo5d39c2GSOf8Y5qeMalZgA0zOEvsU/sYX3ei3uzNV9gXzbQ0f/EJz6xODLdog9njr72SYKBbTi9Y0iJvdTMDZeJ3ySw6byIJXFADgWbAlvtTSuCXnyJ/OyWbo3aroPW/UeChXxcMoVL7A4TNtAye+ELX1gKojSD+Rn55K4Pb/eKLeyDObnZwThbvibmEaic37nXIpb4F/3oLLbVLlWUgntiOBjaDslatx8ezrdf37dxz5Lr5x64atKlkCmQRi2MRAGOlMCVu0ASwFWbPfXUWWwYjDcgGCTj0HKue8YJRt17PcfJFpk5PQOQQwe2BzwcFaCcJ7WgONUgZ5/VfgZO4tD1fTgA+UKonNz71OZLhSkcQ6Icgc7yRSxs6/7wTmFqDKImVQKXfnSNY2c7NaLo6nw6c3bfH+Jbri+AEJhCxD3cb94LfOlInlQgrrjiiu7Rj350aXryLbLHprWutW1712ERPOTjkmkwqO1vgmcD3+GI0N2LPHw8cmXdvXKcHaRHPepRnQH+8FYp4WfW0zpYBObhjMgCe4WsB5JaBvSBtVTrZH+wth8mOY9vegtL10HwE0/r4Sb+sBXhRi0MJrmhP7mZnGMbxuMBg4HnmjxeJzOW0JcWvTb58Ic/vJCYuR7NnqP/j2FcI44w6v6THI+M5LMOHOsCwHg7U+IZb2YoEoflPAAHcowQ8OeRu2cc3HotQ2QTEHECMntRwedeFFocPA4QO9F33gs/ktxb14PSHs69QQvT6Bx96eY8JMTR6a2JetVVVxUfi6+4NmKV+N4s/GcUbrVPkYcvC0YzMHnbiR6COwFLF/Yd5UvBwrnWxyVT8pJJggd/UCtNTRmm8I3/kMM9atKxz3HnmirQ20Kuo8BiU1jTlR3E0bwX/p2CiwzW6Uoub13xsxTadIh/RddgS+fYQu5c/0XK9FPpcl3r7jnJQq6xyDSGyo3kechjejnvM6ejuzacdc5EGYJ7reuQQw4ppYEhFpMKPK5y5HPtOL51AHEOBjA43vvDSInzk5Gs5Bzl9LM4HmMnkCJHcHNP62Qlp1xf4iMf+cgyBk8tNY7P2ccpIMfFctzzYO7esFab8VlvMpI3eiXvxdB+OkU/BZ2uGUQlsSNnpWNy9lzEQj8yRA5YC0K6q1AY1M6foo/aNgwEcq/e9XavD4xLpnCXYEQOBZAHr7k/bMVeiKT289yTHPYjJDU9D9dcS4J5fIuu7jXvBebili/UMtiv4PYa6gMe8ICiY/QLqdYxBAO42AcX23xU32niJj4Mz0kW/rAVwIYtLspxnaxEkATv0UcfXWqg6XgnXAQkLAPFgBGegkptTVVP5LxB4XoRnKEAFOcYJtewY64Xo9fXogN93dNTZgG7xx57FCfi9CF+8gI9zh59sj2r3H3qe9Xr7glf++RklTycUkB54MDZ6FfrDE94cBJLcBmG33qOuYd7ux859JUihDh35O7VKXrBm17+ozuGj7FXdHHd6BJ/WY+cG/1P5JFHnqzzKe+Wswvf5+81qQ3zG7jUGE1CpvyZLGrIxvPmKTc83TOYy8klJ5d1XV3OI6sWpfHNsWONOQ5YFO7BlzzW64WsWpymPEyLIJjTif70DA7RP1iI+/3333+tXzi6996nvme/9bHJlBIhU+M4OYz5AgnLcYY5SQxKCUrGkAbPqtVyQIbKPWJA+SwWeihpgaYpY+agl7zkJWXGGvpIZI0B6IYQ6u1h+s7rGFxhKdcPbJYkb4LBkiP05kp2wTArXHNPNQcPZTwt5Rux/yBc6BDcnesdap97SY10Fj4wi2umMPGcQO1U/zZ/h4GAHaR/9sMh9pSPS6b8OQTgecWv/uqvFjxz3UE5fyZXCjxDjbx9V9f8ZoHTtK8Jd74ujvX1wly88in5IP3thzP7eDX5uuuuK7rDky9PWnD431aIpV5cJCn7I7BhEoYaaYYRgtMQepjAOSZQKCqnBEV1DRx44IGlZOEQlJCiUO4/zZwuCXz3lAwG9mlbr3OmdCNjHI6uo0ghes4zFwxkZAPBwJnMeiQg6BUc6ZwgsT6LJbiqAZsVSpCSC27DCiLHncs35Fo8+luRviBZpYVfKbT0Warx0Yfu/GcYBnyGv0mJD/8dZ9B+7Crnwyop7uVaw3zRfeLX7GRwv6nx4D4rH5mVLcmsua8wUIgHRz41DAPnsZOCz5hhGIqZ9ej/bWSagAip5aICk4PrZ9SxjXAQYQw/SuAYVk5BxkOmFJE0U9VEJAoBhwyzWOhE8QCX+2oqeTjmbQ9dF3Qk2zg6DtN/VscEjARLuAoMNjGkRfcJ/VI7hSW9bcems8DW9dX2kTp5yMXOMByEQ3xCweChU/qvVpFMYWoQuC4KLTd+xN+lcWpJsIi/jUum7Ck+PcPwuRT3co1hmLOF8/gPGZGJyVw82Evsz8I/ZnVNGPB3NXMPlOhDNz44yO/sZ5PMs+D5A47DDetZNiFTAkkBMwFon9qr6cg8QCIkQzO8dfkwgZ1TB1TtMNYZUw3X1Gz6fDjGLJfU2AR+SmG6emiSp8Q6tL3OSU8GSQ1wmJ6LOEYu2CL9BKyS2Qzvakj0oqNkCbnOAl/34if6bo2JTa10lH/AjY94EOALmV6fjc/JV2nhW7DmR+ZEhYHENqNwcFxaD5lqDZhs2fCsXGccf3Suh05G3ZgwOwXwrGNwmjbld/RHZmLYYH4vieAV+g3DwfFwmIfRCnI+HG6YRM5CpnkwwXFr57VOUBe+5ZZbuoMPPrgEbZrBHCSOMo7Agl4ifBzG/+xDpiZ7TjODQ7r3LBaO4truYV0KydhnrCxMfIP7oIMOKn2pSrpRJf0wDGZxjDxsUA+BgS1Z1Qz1ITEwnST2lM8KV9d2PzMUkYld+co4upPbJMMKMc4ceWt/nIUvTPua8SutHeOaBbXCeFQNCUYhwcTGuDVTWMHM8EQFqWvBE/7jkIn7GC4oDmLDWfnItPF2PT6SVqY41mftBR01znFj1nmeOxx33HFrlZBJfW8omRIUuED2zRiGQp4cw80ZjLEYbVjAxKj+I/gl/7UtCX41LDVBtV+OiMwAM4sFSBSvCbRed5xzMpDSWj/MzjvvXJrQw/Sc9zHYIS3BkC4XuMLX5x/e/OY3rw1GphMd5bMKFNeFmW+XqymTRc5HyDoIn/iQOTL1XbNNApv/rdIC34xO0dQ3sTTfHqZ/cIFDsJKPS6buaZihLwyojcFdzCXucv3ePLibuNokJnDn99KsfGRWtuQn4QzdLE996lMLmcKiV+9623E4iBktIyNQNPXXo38hU8a3uIDEOA4k1xdjtp4YqdcxCFIL2Lse8rWf4FLO8V/bajCU8epgaobuP8vF9UOi9X3sj+7IQR+gN1w0QTUFBAdHj7PGINFpXrn7skUIC46RiXzeq/Y6J13qGoftWSzuwREzcJ1sUm3vftg4h+3NBgRvNnEtaT1OPQvdxr1m4ofsmvqmhPSwdhwfgZMUzMYlU7Gq5aivX2WHD+Qa/fDOPvcSmx4oI2PYK8ToQP5VWfhzcJerjJnHQp/1KN+LXWAGC5Um3SUwnXQZSKb62wCqlNLc9VZTjDDNnBKuF8MabGzoVT+Sm1S5aZ+vL8/TUk89BT/HrZ13mrhs9FpwNZbXK4GcTaBwNGlWC2fSX6rA4Zh04KyjdHGOvniflLCERBMks5J3VteFMR1gbriNJicdEdwwLMSAFCIcl0wRoKFo3lwKOeQ6o+7nHj4/npYYuaVZFbizwJyskRv2uAMecB+FefwzZKqryWxz64mTQqaYPAtBCJeqvtzYRR8rG2aYjRxjeEohpvvf//7dH/7hHy4lmcJGLdWgZgOE9YepFXJIOmwEg2n/lxNp6iMojsbQCZJZBYqg1k2j70mLgwxx1mH6OVchakZ1Tky+5PHLVcrhbOEvWgZaW7AYFdh8KCQoH4dMYcW2+gkzUD/XGHU/x9kK4ZMV5mzoequ2RPb4uFaBeR1wCjwG+V8wQqZ8FYZee3e9SZdNyDQkSqCQqtLVhCWIY5BAG90vmCitNuNbL2eccUYJqFkF/aQg5XzywEbfjFrqu9/97jKr/7KSKbk0MzmGxNh0WI+jBINhuYJXU93TYU4aBx3lH/r5nvzkJ5f+XX4H46Rh91vGYzXOdDA6Rd91urOGYSHoQ4TycclUjCo0nQ9z98h1ht1Pd5WvUiB8JMo3+MgqYg93csv5ED10TXqmEMLshwWc7HeOdRxk0m//n3Txn63qmqkdCTgACxCTk3gy1k+YaexTIlCEI5hz1PvNZFi2BRbp5ObABgl7Yo4IBMs0sJjWNTgHXH2znYPBk8xyzjaLRd+7ftr04bp/nDRO208/fYrHH3986esSEPwuAbGMfjAMuwQ1HeginoxQSK2xn/7ZByMpmI1Dpu4nfhE2clQw1dfLer/cuaawMxs/vOtE/lVZ4tNyeEtqpuecc06ZVJwf9tPfvhwL7jA3gkcLdFLfc99NyDQAupDgEyD6EATIIIE2uj+BRjEzqr/+9a+fWJHIPcscJpzX00K4ANykxRkqtlEcpv1/uPrWjaCOPaPDLHAyb+xee+21SbdHiEE+SD/dEQaMGyNIVgUWx0whMAtZZ3VN+EoK3hCrbivT4SVwB+HAXglq+bhkyg9f8IIXrJGp/7pH8kH3c32zQ3mvnaxkFvNsIF+VBd4KgujAdzzz0W/qKwiprffDIcf4J/vgOa/jmgkPDpMsm5BpHMFFCGZRQp133nkzq5lGCYanDOXf8IY3rN1/EmVmfS5M4KHp5t1xk0Io3TUlNA/6GWtR++BJLn2YIaY4HDvPYjHHgmajII2TjiIQ+GyzzTalz08wk1EgyxMks5B1VtcUO5Gbv0haL7vvvvvI1gubSSmAxiFT9zPaZr/99iuYwx3mudYw/9PaNJenigGZ1XBdL34yK4xmcV1y83OyRweVHr4VX+yHRY7J4S6OjdH2INW1JlkKmWJxC0AlzuyAdUADfFY10zgPB6CMwftmvZlUkUmUrnWt/0ff+ljwEBAMxNnyQa+84cPh4/z9jDXrfYOCRreDL1KaBg+WdImz0WcWi5qAuWs1N9NHmMAehoMn+V4DVFBFRj5IzlWqIcE0cUN2uNs2htPY21FdQbFl/GlcMkUaCrFgHWJwvWG4ew5y0UUXFdxhL9Yjd2JhFn4yi2uSW4ySW8uG32jqZyrCQTiETPOgCoY+tgcXtptkcf5WIVN/rEEkXGqmBtYPEmgj+zmO//eSaS3HJAqNc25KLsozgiXGcMx+yTqj5IGT7g5DxDTrFS6RWWk2ynE3gtGg/7onGZJgWcukueItHEFNP3rAdVYEpQb20Ic+tDxMrG0aRx2kh1miMjkv+SIvu1hfpSX+xHck2/okjeUc1XpZD5nCx9hec3mGRIPzKJ80lMq8vmLcwi/gL0WPVcGezJbID3uFg8/J8L9g0puLF/vkwd/8EFrjOGCSxflbHJlyHs4icUYJ+PL0GzEK8jGYGUkYClW/q695D3y1DespFHqNNcvtEKcgUouxbZ3zeCPK5671h9GFoelmfVZk6lv2BuyntE9wjypsEEGIvg4IsrLLKi18itxJttnAE2I2GuYPCeZJaqZ81ivYfDOEkHuM8km2MiwqfhGsI/sq4R6Zk/N3ZOpNqGFkGoyCHRsYnqniNGmcbJFkGoevydM6MEI6tjWf9DmahQY5pfmKHBgoxCVnhDjxvPI6+EJgnMM6gvKudkhKoNCNs9F/Fou3xIxHhg3nVNCQx/YwfPwH3uSKbRIU8lVaanzpouBW684DomG+UdvT+jjNfLj5RlbINOTgPsMwd1wT2Cc/dF8Fb1ivGuaROb5jG+7I1Acoh5FpMBIzwU6N3VAzhcwkyxZJpgBK4MpTK5VLuj289WXCaE3QPGAKgTIA4JGqPMQxLFBmdSzOQA4PFBCYbghO5LVcDlGTaB00kzjKOOfm5Y4UOiHRUX2FyJSMwT8yrmJQx7eSK8wUysiUvwzzA7aMb8nHJVNjntWmEEJqWMPuk2OmnDP3LX+vsa7Xx7H7MpxDZv4T2fk9MtUiWA+Zvv/9729kOq5hA74gVorJlfLGjprUxQxWxgYippAoR0UUNVkgsQRAnHReuXsjKvcno35cabfdditvkalxcCr60c1C76yPi9W45yFTH1FMjVRwky0yDsIlZEq2BEPWsz2uDIs+j7wKaIt1TcXUTGfVzFczzaukfCI4wz7r/XLvoetTRzrBO3IvGsdJ7x/c5ZbUTA877LCJyVQt30N315hkwSFbXJ8ppTm8POvGOKqNKsl8woDjpzmvTzTNgOQhUCQ2qubVz5GnsU/gkIcMiF6OmMwfYPhWaqV0RKAcTek9KzK99tprux122GENj9SSRuFjDGaampyXbRIU5F2lJbKTP8nMYz5SNysyTc00eMe3amLNvjrXFcRm/ISs8RE6SKu0xF+COZ9XSHiJRFzUetfrwSjYiWu1fAP+W5/pGB4Qp5FzJESqw1lJbdRCgO0lztS4HE8TH/i2Y5TaULNed0+JnGTzKm4+0cuZOJbhIQkWxFST1hhQTXTKzTffXD77ouZO9+A4ikw5r4c0nFcQp4Bz81kR/0SKTXBySIjc8Lbtdc1RD0LgxZdSSMvHbeZ7SKoQjX/G71wj6/1yk3qYCCc1MPiHjKLHBKov9NSQKbmtwx6ZmlJvmP/xUdjEV2HWnuZXpgSmgAQoIoljAzeEYh/n8Y2dl73sZWW6LgQZcPs53yL21UbmFIwtT41UqYu81O7MFYA8BYe+unkvSEMXA5mQfGQdFdRmmfIghE3IHnulQJi3Hhu9X3xOYNPHLGjjfOQOTlKwG4dM+bNB+3kpgG/wGf4hDcNeN9aFF15YSMd14B5S2igG8/4/rBPTKgxiW+vMzGnDyBRG4lrswwp2vjpwySWXFA6ZRA/+ulk28+McyQO2V+8Qjbd1DGjn5PoZERInXgRhDrsnIzN4SJWMyMroAv253hh7whOe0H3sYx8rBYdA7n2gMIlDbORczVmvk8YxyRpiGBbUatQGSbOLgEjtIvlGZJr3f+Nn/E6ikyFjAjSBO8jeMJKC2bhkyqfND8Ev3CO485lB97Kf3//e7/1eaZkhUbKS2foqkSpZUwArvJAaMtX9YU7TYbjnWHDDAyoEGZ89if9slmQKXGDGmTXjU+ORm0LP+/++N89hPQXniMMCfphTzvIYIwsKSZAwNrLSHaF/0uzqnIZedEak0XUSR5jGuXDOxwhhkmCGa9b7YeVrmqeeemqRHRmFiNjR+iotqU1HdoWbiYK8bcR+/fTPvvWQKby0RszWlRZLiGGUP/N9r25nZvm03MjuuquykJXvI1QFAhuonYpzte9hvpdj8VEFjLfVfCVhUt/bLMmUEwCWIwdo4KqN6htVk/M6KCAlBMWxOOMoB4zjzysXgGQjI/kkE4P4HIbaqCfFHEkgMCa9bdN93gtH9vVatWY4khVOcdRBmDnfp5HpwF5Sbbt567GR+4VM6SAY6XHaaaeVFztG+ZbjEpvL2X3Up54RH9zPPPPMtRbMJGSqLxdxKIBr2V13VRaykh3eNam+613vKnE+rBDLseAuzjy0UkBNigEZNrtmPhBCKHLAeDhi3Kgn9Z7OA43TSUojtb1lJFNkrxaq5kxOtdHXvOY15ZPUIZzoS9c4lWCe9yIgTQWn64HcsA1ByAeRKVvoblFDSnNNDVtwuOYqLWRmD4kN9GceffTRBYdB+md/sJqETGEDM318yBfudXM/1+6X83f+5PPmfMdCfj60agusa/+nw+GHH15iZ5jv5RjcrMPwRS96UcF0Ugw2WzKlmBLbwHVvMXmnXpUfMSElwHEmgQxAZJpSqp/jLWofeSXzvKqN6udVG0Wk9OP8SXEoBCSY573AXN+nD7TBFp4hhmH4IV1Po71BRRd60E2OKFZpCYmSmewePu25555rhcowHPikFMzGqZm6D8x8t0hXQogUpqP82XExYQY0toO3nNyL8J+N2Dm+T3Z4GB1i9qcU6INwD0bOk8SZETGuN+kCu82uZgoIhGLcqPfTDQHJWFGApfRGoNal7OfMg4Cf5/4EFrkNhFfju+2220q/Yp5Wchy6SgwpAEKskzrCNM4nh1m1DHVKH3TwHYadc3RdvOUtb1nTx7Xos2pBDUc2sCjwzGVqGjhBm8AdhEVs7jzr45JpcDfbEX8J5qPux+dVLHyaW3+3mp1rkZ9vrcoSvyc7ueGuYDYbmUJ9EN72w0oOCxUrA/ZVWOJ/k2Cw1GQakBg5Dpp9lA14jtlPGcMhJINu99hjj1LyckqOBdiQZRwXkFnPsWHgr+eY6yLu3IcBcy9GDKmTMYGUZr3Zhq666qrOxMscns4Kit7aJ/0XvZDBG2RwJz896Wd9GG6wcM4hhxxSJtxmT3oKimXQa1JcFXbkv/3228t0kkZdxLajcIBFfGBcMhUfJjvRrEWO/gf3YfdyTDzA3bSJulhcJ90r1ldpSfzzGfibmEgtcxQOiUM4iENTGZrlC5ew4STLUpMpgxIQUHVQWVcCaQrKbSMbQOqj8h60IRHA4TABVHM566McbdrHBYh7y107xmPMJMeNLCCnuUh1oPuEL+Kkp0IiusNl2RYykdW43byGS7eQ6jBMneelCcOIYvc09ZdNz1HyCEK2+uxnP1uCk61j41EYOG9SMoWTgvbkk08uuMfXRvm6eyFePqcm5wFg4qqOt1H6LsNxmPM/WCBDXSt0o+MwzBOLzvPFYQ/kDDVbT3z5z9I281PjZFggZdiPgLVNeMc4AQBUz729kAk/VNsRU0rgccEdBf6kxzm35leIXZ7aaXL7yOdjdAcffHDpA6MTYoGDgiK1BdvRfRkcOTKQT/IwxCTfnJOTCmr6DcMNDh5cGbKWQkMNY9WCGhbsw1eN4VRTpJuUgnQQDrCSJiXT4I4QvaPv//CWXG/Y/dhGpYPPialcaxVxVxCIi7POOqv024+LOf1hdNe73rWMvIADG066LDWZMqgU8lD61InSaqTevHnFK15RAji1zzhxHcxZH+Rcs9ofMo1j205C+BzaUC1vMSETTTaEwrEVHEgl5BksUiOf1OCzPD+1A6830gWZ0o0tRmELD+ftvffeZdZ9+ilA1uPUs9Rx1LX5q0LQg08vMNBfUMvpOAwH/iE5T65wHTU0ijzuibx9t0jNConGv4bdL2SjoGcrD8v4HMzhv0oL3yO7lqkP4uEBsTVMf8dgBQfJDHG+iiDmXA+ukyxLTaYUqcmTkQGWEkjQfvCDHyzzjXIGiQPGcePImlnA4qDjADzKAOs57t4xGkdnRHKR0RNVM4Kr0RnGpabNoIxD/xAn/RUg2Z7U2JM4xnrPJTMS1GelxIf3uC0CWChUfFEVDvSFxSot7MV2umi0kOjE9uP4jPOkScnUPeGk0PUQLw+hxrmve5GRrcywpCBYxUJMTKiAmIcUKYovOo3CgO4wcG7Gl/I7mE4aX0tNplEoJJpAZXCz33vrI0/q00eX/ilgCmQ5wKQQ6jiOPc1zGDQyMFpk8YljM/cYN6oGIiCQCD1TQ4AB/evEyJzHvmVbyEs243o129mAs0qDMIVPChr54x//+LVvQiGmVVliF6Mu9P8mmOk+Kqhh4xwp549bM4V3YsWLHEZT5N6DMM/94O1cceLpt//zw0mJZJE2IquYEUNq5qlUwVGsjcLAOQpxn+ROrXQ9+iw1mYYwkAYlgaY2aoo540a9OcMZgAE4RMopAqLc8eQ5NgzcWRwTIGSUIq/+mac97Wll1AHd1CrkDJJU659gkSNa51hfpoV9yEYuD0Q02VN4DCMT9kG6zkUgXi81FEyTbZUW+ms5HHPMMaWZWbeIhukfn3OOBA/5uGQK7/iMuU0PPfTQ0mUy6p45nrhQo9VEFmPL5lvD/ADuujne8573lJdy6AN7ScwF3345DPid4Ye6ScQgG9LfdSdZ2GChD6AoHoUopbZ24oknllqX5kYIhYIGJr/0pS8tJW+ajv6bBKysxyHlUn2sH6gb3Zf7ug7CtO2+jGldzlklb5389m//dql9qYnGcKl9MqD1fg5tX2oikxh6XueSTVK70QWjHzQOHYw4OVvbtg4n9rQud8xsP75Yyu6cOthwWOuLLEwij1wiS/T2EFR/Mb+mC91SgI7yseDjP9b9f5w+Uz6hiUsGZODVUi9OxA/r65IhMkWekKnzvSFo9jHkFMyT1/rOy5967xO85RY6w5+v7LPPPmutUT4UbgkOtrMeTOJz5rhQocE5fNd16T3JQo6FkinDpo+H82hqIFNKEY5RjV00btR4OE+JAQCMOMMy5IwUY9UGQybpO9M3+qQnPam74IILyqcsEgCTGGzZz2UzTsh+akmPeMQjigOzMwePk6eQie1tw0+ulgo3NXe1JNfk3HzBdRGsbSlBNU9cBBsd1cKRl2SfoVC6KPIQlN35aXQb5acJ8EnJlBxwgYX1z3zmM+X1XFjnmnLXlfinnFzynGddDHpzSP+9a8E+NkU23r6blGSmYZuQqBYPXRUgkctEP17O0VSPnnSiD5+SS+lyon9i1PEdd9yx85lyevEps7Y/hgAAIABJREFU13X9SX3L/xZKppQSUEBAkgA54YQTilKe1Btn6V1ZJa1jAWSUY877OD04Z5yXnBzTPsTgdUkPJUy2wiE46qLIYBrO3e8anE9Nm14hmFNOOaX0YXFm9o1zByt5HFuepA9cK0UNHnmGRHN9zr4eh+8n96T7BJ17y0OmSOb5z39+KezpKpj5AD+kE735xjC/jO/4v/Vxa6ZIjjx8SoLVW9/61jLUJ3i7r2tmO/aIrDlGZt1nCjJvEAbvFGAKNPea98K3VD7EDtwzwY/nJ3zsbne7W/Gv+FLwlteFBT2dQ2/HYOyZBQxDpvx3PTr630LJVIBFOUYEyrHHHltA02RSStZ9oz5uB4RhTrmoYzEOfSTbW2+9dbfffvuV+RENeeKUCUaOvx6jzduRx70fh49TRjfNVB9u49AhUNjkrSDOzQekOLrjHiIohLREfNxMUCMuAaUGIKjdY1FLyEsACXAB6Y0bFQM10+gTkoruw3zTudKkZJqaFDzYQPJar+cK5EGQIZT4Zgox8qTQd1/ny413Pv7448swvfhsrr8InxUz7k/X+II+dRzhBRexVvsRnYNjsLctOeZ8WOhOuv7668t1XZuPsan7TbosnEw5D+djPEoin6OOOqo8qfcWU8gTCBwCAHLADXPMeR8jF/mTOKgHKccdd1wZbqIEBTaDqTnIOf3mtgg0eqWU10WjlmQSDnaLE8fR2R9WsSvHR6LOc0zOD3SNIFLOrsWiWZ3m3rwxZLvYEqkbymWCa7LTi8z8zzrdosson6SvFGz8d5w+U3iTKdjDhVwe1JrzwDXT+oOz2JGHZLLtPPtzTEF20kknFbwRmesiskWQqXvyKXGkwEbwSFDXGXyTYCfRSW6/nE/Bk45iFB623/SmN5XCkD+5B7vCM1hO4lsLJ1OGQ6SUBAADUpyy6XsKidqHXIHj/FHOOc/jZCKffjIFwr777lte0eOAKe0YjBPEUCnpJzHYMp/LCaUsApzu+qNMuMu+HJg9Y+84vW3Bzfk5e/Zbt8+nTRAqIuW0cJUvYqET3XzC2ds2JsfQeopefEGiTwhLzteH+SQMpPj3JGTKpySEwwZ8zfv2+++/f4kjGLo3OWDqPvZFJnnklsdWHkh5Sm6aPtd0fYQ674Vu7C1mzAhlpivDCsVc8Kp1CJZ0xSe2HYcp3XDLYx/72FJYhaRzDzn72j/JsnAyDRBxPIpalwMiTgi0rHMC4AxzzHkfE0j6+DQbzF7urSzEyShp+jJOiJXDA5/hNqeFjiHUOKfahCfM2223XbEpuyZg2TSOzq5SjiXobQsCweMz3B5K1TjOGz9289BDjdsDU4FJPon88dMEtO3oNcwvc35iwvXGrZnCGtHIJT6H/HzjyegRMrg3QhFb1t3HfnnWbSdFF+OFzSzliTndJyWZadiHT9HLM4czzjijjOhRcYk+5LeeFH3k7CMPifIrY3FNzam149oKZ9ennyRubU+y+N9C+0xjZHkdVHEs+4FgO85gHTjDHHO9xxgj94oMrmXdMffNfrltTqc5Zb7R888/vwQ7x45DM0q/WuikxprEsIs6l0OFTBMAHNWTfcPa9CvCqyaXGkd4xhdiY8cFgPSgBz2oO/3000ufYPry6Opeue+g7Xp/zmeDrAcz+6IH4sg59rEjgjPixENRhEdOskVufhKftR6SHeWT8SvXsz4umZKbjGSzkDMFN4xe/epXlz5osoQgcw8y21/L5ph9kcc5Hv56wOZTIKmh9uIdnIKj4/b17nd8kmP+754eRuubzos6kZN81pPITf7YwP7o7Vwt4ec+97llVi++GT0ip+3siy7j5HBfKJnWRlyGdaAzRAxjPQ6XnLHURCVBZGiF2qihMYyjGQRYCydYj2HGMd4qnaOk95EyM+rDjKPDGpbyYbZPYDhPC0Vt0AiPG2+8sdT+4Ys8QiIJ4BBh8gSJ4/W59iOikLPzbSdXKJJfLcbk196y0ZVDHrrwFfrwj+SIkH+QXW6/84bpGfJynvVJyHSQL9BBLdqQPNeTIjfZ3KefTPF7sjjfeZrLHmrpi9XdktqbPBhnH3liF8eCfZ2zQ/5nf01m7BM7edCkWW+EQb6lRabgBF/rdXyS1z66sZHz2cC5mveZJct9p7WQuZHpVlutORTAAR/DyLMeAzmHgTxgevazn10M7cuciJQzpeRmJM3RaRpsWoaf93U4GlLSTNfHKKjhClN5v4DOPkGRYBEMztf0FBSmnTOuEvY1ISYw64CNzglSgUwuid3SF4pUyeqa1pGohx2mFjQyQbORDyB2OR3IFdLPPj4S8krwR6d+uevEx+T+O04zP3r1y6OTT2mbZ9Y1yU028sI195VHrloOeJOfjnRXmB1xxBHdpZdeWh4I8Xd4wR+Wwd567m9fbQvHnJ//hEydrzICd0kFRW3U67nplyaLlMIg69mmQ+S3zh5kl7y3bzYvhUGGWfXDbT376NTItCJTzhKjcLSscyiJM3JEhPDOd76zzJ3I+IJR8ElA5RyClbNwoi19gQdcPBQxdlRBBFuYwjlB3C8XBAkO50oIwX7dK4aeIel8pZUNEKDcfYelBDj7kS82iy2RmXHPXhjxCjDbq6EJYLLTISm6OCaAyUlG/8mxfvplHx2jp3waZEofBMUP9Z8iE32NZMv96nta75XHPjrSJcTlGgjO8CkFjX5x91CLrP0/mPbaILg7bl0iJ9wRs/kN+InCS9cQLNw/WEceOXmjj3XywjuY22YPPqfv14NDRIqsyTWthS6NTCsyZZwYpnYihuFIRhOY/f6Tn/xkcRxBKxCTOC8DxTHiRNMy2CpfJwFjerrnPOc5pZYjKOGcAO6Xw14gOWZdYLCTmgqiUgBq/j3mMY8pQ3kQoAJOYgf3ZQc2So2H41vsZzPJPuezqS4E0zo+5CEPWZuwhf3dz73JLNknWU9NNT5ETiSgJufdb+f10y/7cs343zTIlH5ILgWMB4FIhR7ul3v35rUsMI9O9pOPbmxi9I05hD0v8PowolLrg2Mwdf+QZuxAHvZgG8eRm//6zIv48rDRsCf3gANsg0tkyTb5Ir99juecyOtaZsVS4JKLH7g/eaa1NDKtiJRBGIPTMyCHi3GsGxxsTKHaleEZnIBhOAajSJzDPscSxNa39AUWCSh4+LywfrxgnGDolwsINoltkCgCFUT14H82Q86+uWRomnfM9dN6+JWmoyYpe4VUsy6Qr7322vLCiE9XCL7cw3Ul909SO5XIHzLNsWwjHN0Rugd8/cF2P/2yryYw6+650WY+n1RrlCM4T8N9MA4J1iQUGeTuHUKyTm5YkIduCI7esE4LgR3oqvbu8ymnnnpqwV5NNVircbKD3D7rhlyZNg9GD33oQwvucHVP15bIKdmX/WQIXtEjcrODdbpYJ/cBBxzQ6YpzX77I7vxxmksj0x4yZazaSJyKgzzxiU/sLr/88vKknhOkdEvNx3ZqpyFRDgzgRqb/94QZVjAKVgL7cY97XAmgOH8d1FnXGnBc0IR8BYi3pOyzLrAFOnsJNEFovyD31F2T1MMvsyI961nPKsn8lfZp+mbaNteReq/r/gnsEE78xD35jcC1br97e0ilBm6YnNy+6NQvz/VCBs7fKJnyVf6oEElfPoLTD8mvyU3mWh5y2A9HstTHsm6/c+DkfNtsEyIkO7zYDv6GDO6+++6l3/ZhD3tYt+2225ahhM5xn9wv28FA7h7y7HM/ctgme2Sw37b9jlt3fwWrN8LEIv/zQkPiVoxOa9kiyTTGAHjW5UkMGsfQ3NBnZlgGUgxBpjbKUWOY2ijOUwo61pb/QwCJSpwuxIpozEifWiAbJGgSuIItJCro2CdBY9t6bGk9wWc958md6zoCPQGc/7tn1smQ/1p3PccSpHLJ/gSybWSemhtyRtRaMZqWhuK4Z3Tql8f/XMv6NMg0BTsC4ZMSP1ZL86ahQfnwJHfuH8yio23y1tvZR3+YZjvnuFZs4hy6y4NRcAsO0Tn3obvr5jr2u4d9kTX/jdyu4RzJusIMgSu0xSssUpgnjuXTWrZIMo0xAj5jCBYGt49zaeaZAei8884rfUCIEVhtmR4CHJmD+4qnJr95GRJ4CQj2SCCxm/118CSgxsnzv958nP/W55CJv0ghiPgP+RCp/jm1IU1afcSa+Ysg037WgrtkshBTzxm3qeuEDjBGZHSEU3L6927XmMxjHbYhYXJZl8cvHJdsp49UF4+4nSZp9sPUvi2STFOSMkSMwtE17zQLNQkNyvYapBJNajXMQS608f1qSoY3HXnkkaVJyBYCOzWmBImcvRLUCax5BHJ9jwRs+hGRD78htwdhiFONW7Pag5V8htl59XV610Py0dH5G23mD7MO3D0s0re80047rXV1IKM6JU6yj5y9ss9jO37g/mwPHzKltiq3z0cFPTw0IkAlaB5EusWSaYIhxhG4DOEpp/40TxTTL6q0SfN0XkYZFgCb6zHNLzU5w2E8+UZU+t8QlMBJYjPBLXgXFdTuTx6ySQKaD6nhmdhGjS8tGf7jYaWXDJaNTNPlogvg4x//eJk/QR8jnehDR3jbTgVkUZjH3u4P/8hIPoUu+cju1dk8JFaYzbMStEXWTDk/x04gyBnBu9YGCWeMYvr1OJ3maFtmg4BCiiMiVO/de7rroYG5DgSJwBZAAqkOZsFeb8+jduQeZHJvPoT0bZsq0oQg+ufMlMVn1PwEtH5Tr2IuG5nCnZz8XA3a/KVePfWlAARFRyk1UnFiP3vMC+v6PonbFF5y9iePLiJvpvmGlT5quPOneVaAtkgyVZpp0nMOwzl8M1xtVBBwLElfF3A4W9JsqKRdlcMjHq0BuZqSzw77wql3wpEQmwkcedZTQ60Dbh7r7o9k1JwNKBfEV155ZSmEkZJuITqEqDzs0YWBiIbJRz8pBQe9Z9nMh7thUyoPcOf3+hg/9KEPlYdnYgRRkUOis21xM0yPWR2DOwJVeOlWybpxrr7K6rNGcKeLlgFCZYN5LVscmXJWNR41Cs1JRtC8BDxDAEQtlDHyBJBB7J9nKTcvB1iW+8AcxglquRoGktpll11KX6Tgqcl0VkE77Lr8h+8IZm/B+fCf/lGkpCZEB4RK/qzb9pE9JDDq2vMmUwRKbjLqPyU3cjVDlNjINHcKDikF2TA9ZnEMLuyP1JG5PBOWkDUvCojhFA7idp4xy95bzBtQSnylq2Awz6Nxo2pDaqEhUusCmxFiCNtSW2aDAGwVZgIb5oJbsl+umWwQuO9J6RcLqaYGN4vg7b2mYEYkamaI1HjVa665pvgNOckt7y2ABbSn+QayLxuZki0Yw946Mk0SGx7C+qS6B2vkR2TzJtQUMCFRlSFvXPncO+KUEFlsUOuRGJ6N52561ZUl0zQ5AnQMbDtNEfskQSdpZnnI9La3va04uABGngDnTDHIphC1rUUiwDb6UZGUBznmstxtt93KGzxphsbGIUA+wD9CurZzjB/wD8eyL7ljvT7jvPiafjm1ZBN8qDUjej6DlCyCmLz2Zb9jaq5mPEIGuVdvHj92P+fZNsTK54dz/XnagS7iQ41b7lmC2rXauAINscIRNsFXHj2yj571uv/lPzmXzq4Ff/sk56n0wML5CjCv5Xr5wZtqiF4iH1mXYWHzlayZApzjAzpGADyjxCAJHGPovO1htnez5+jDojgCDZkKjEU47TI4wbLLgKDSelBrQqoeUqmdeFhishPEWgd4fIIvWA9Jxjd6fYcfJaDliEwA67NFIE9+8pPLZCreHtKkDHHKE8zZR17JNp/ywofXGV23l0SzTUaplkOzGmm71ryXxAYdYG5bgUYXH4b0wE1fpbgSXyoqSbANzsFeXusqVkOUOQepar67nqTiY5jT3nvvXSYo0SeqFsoXECnZJNvLsKwsmQZ4zifZZhRGtG2dsZRu5htVGxWEac4jz7o2mlrGIhx3GRxhmWUIOYWgUuuTe0BjxihTIXrbxagM32MSjPEJwW0dmcn5R8i0LoDtV+vybr9XHr1C/PrXv7677rrr1pqSAjdBjCilWr56O8dNimMeUPcOofTm/DWkQjYJsSDvRfgk2eHr3mIjzxDEjJoqMrv55pu70047rXve855X3mLTvwp7BRHZ6RA9a3LtjVeFoLkCvGKKoNX+1eR9dVRTPg+G3df9kXs99Iysy7CsLJkyiODoNRID2s9AgkLtxXAJTqmTncIxBiMIDM4iWW/LciIQAov92Iv9BJWkkDQs6bLLLivjDE2cYcywGqUWiRmlTOfmhQwD1JGlafUe/ehHl5qP8zQhvbNuZiUtmHQv8BfJ/XJfecgG4Tgm2ScPCZH76quvLvfjsyGX3jx+nBzxIiV6LWIhfzCX05cssI6u9iE4k8ToBjBxtuFhvqjgxQWxZ3pEBYk5GMynKlnfZ599SmFlJI1XbfXLmoDFd74MtldouZcc9nC17X7BPbVlsi7DQq6VbOZzRiU5p5Osc1ZJqejzFr48aFYaBtFEiVHi/HF4RuEwCYJlMEyT4f8jkNoIZxXAtS3ZLYFmf85la7UnA+i9rvrpT3+61HKuuuqqMss60pXUfIzm0HR3bUv8w3oIxT5JQGe/7fgNGfiPbdfJfuciCP19dU2tl0xtI9Ls59NmKXM/95n3Et3k0Sv7YJsl+5wT+8RGapQevukzRrbGsWqqs4V9uts029nMfxJ/wbCOV/sii3ODcfZHnkXm9F9JMg15piYqR6SaGZ7UGzfqNT4lGYdkmBgghpdLDCI5h8HaslwIJHgSrEgztgx5ykNo8qzH1vkvGzuXT0iuk/PjI7VPxDeCiO1cs5bLfr4jxY+sO0dtzTAePhuy7M1TI3WOdWTqSwJ0de15L2SnZ3QiQ0gPXrVM1nMuOa3Xyfn0SG2zLvQcc648NnVP27FtbOQ+9uc/+Z/zl2Eh10qSaRxOkx6J6vsybvSNb3xj6SRnAMaIAwDeupxRpDiKcxkYGMtimGVwjmWSITZLANm2sFlsaT2Bx472Oz8p13As+5LX5+Z6yevzc936fPsk97afL1msq3mZTGScWimfdp7En5/xjGes+WW54Jx/yA/TxEXwFUfRWQ5D59ZL9ueY3P+Dd/b7n9R7PQWS8yODbf9xXuTIf+1fhoVcWykxshCQcAHMMV/c9GQzTZGUosl7S9lpbaeUdj0ltTw1UPdGpHn6pzZqgLf+GzLHODEU/er16Ct37qBj9XltfbEIsNOwJTavz6v31ftznRzP9qB8nPOcw4/EjlqvONKPq+9WgT8sLuLXGZEgN0+BawnSRS29ekfHWh77+i29/+13Tr99+V993exzfr2e7X7Xmfe+vmRKWKWr3EObD3/4w+WpOGcIgSK6kJ19wxxlvccQqMQR3ct1OF2GTiBT/Uq+DKpJz/EW9fRz3oZr91tOBNLEV6BbN9O/UQa1D/eLh8RVWlmGRXmt0zXashoIbEKmyDM1NEZETpziox/9aBnHFyeI4UOoIbocn1YeBwxZczA1Ufu9BeEtFE9dEX/9lI8ebWkILAKBNEXFDZ/8yEc+UqYV5LMqAuPEhgqEFwTMTyAG27IaCHwbmcYZHNAHhFRNz2Vwbu0ICA6JcpBZkal7aO5kzJp7Zdyofihvh6iJcjhyKwjI28h0NZxvc5SS74mbvOuuqe6FglFEmgqKGHOuYVzGRacvf3PEanPTqZCpEtSSmilSqsnJoGUPd1JDDKnaniWZura3KnTGI1WfIfApCH24hr3kaWxq0ZF5czNS02d1EOCD/BGZGpJljCX/5cu98ZM4ktcVE7XYF77whWvjopFzW5YfgW8jU4RqJ6ewrmQ0VtNnJfo5BAeZVc1Un6gHX95K8UEucy2SRU1UIqeCgIx19wS529IQWAQCfJIvauZffPHF5ZVIzfZRlQ5xlFjSnfXe9753za9dry3Lj8AmZBpCyhAPpISsTCZgBnFOMSvirEvprKuNeu/amxTeriCH2qiSP80fpF/LS6FGpsvveJurhGKIjxoS5TVLFQJEOopM69qpLrUbb7xxrXXY/Hk1vKWQKeNbGE1KSWgdUTnJh+W222670mRBqnVJOopgnRuCrHP/C0GnVJZzPETqO9rmi/R9IERKDiQqIVGpd2mO14vI/Lb5Cpso7PIARndMXkNUMPO1JNvZ53yJjfmf1M++89Nm8J0SF8npbT199/T1to9PSGuyS3x9UBwkJjLMz2B9zwNcE1bytiw/ApuQ6TBxvRampK0nkLDOAUaRaZwlhOn8pJTYtvWPup6Zekx04C0mrwMSMlNtCTJO2xxsmLUWcwz5IcdLLrmke+Yzn1lmoGfHQw45pIy1fPrTn14GohuMbj3Jud7P9j691z1TWKZQX4w2g++aCoZCg878Mfvor7/0xS9+cXnwhEjVTvn3MDJVqeD/HlapQMTv+f6yFiqDEdoyjxQy5byjFrUGTW0TRSBAn1LlJJzFjC8hzH65fk/O5H/IMjXbOFj2cyYPusxZqfOeUxKQ06aEFmC2G5mOstj8j7MJe91www1lMmGFrf5uIzBGJSSiEDXhhQlGEAifW0Y780Exk5o4nbPPfgWCz+GERFMz7Rcb2eccceGjfCYt5/uuKblPW5YfgbHJNCWwKcnufe97l2Y4MhQw8jhFv1yHulK5Ts5DopKAc47ZfUzrZYIEJXyai6mJCiyOJXGytiwXAohEs14rwnRsyARB6LJBFrX963X+44m3wtQUeh7cINJlLTT5IfnEhEKeP6Yrg++aKYnudAqR8vN+sZF98ICDt6XMmuR67pN8uSzdpOmHQCFTZDVqcaLz1Bp8tlZtlLOEKOMU/XKO4tzUSAWN6cU4nEC75z3vWeYb1WkvGDmq+yVxKgnBhlhHyduOzx8BNmIfBOO75WyrJTKKSPgMIuEffML0bV7DRFKuuWxL5FKgI1Skr1mOSDXRVTD4O534Pv3j+/3iwz7nqM1qlcFQWtaa+bLZY1nkGZtMGVcpidBMV4ZQzYKNTAXNICexP0175zlfwNhnJm3zGvoMgesagM9RkwRSmjqcNk5sneBtWS4E2CetCVOuaXEoOJFKamjWexMiQT7O5RcedJ511lmFnJbRzvwytVL6qpGLDbND3ec+9yldGnUBEn2HxQj9TUbtwRWdUzDJlxGD5fK85ZCGnbZClOMsDMt5QqrmC91rr71K0CiBBzkLEhVMEiJVcvvswQknnFA+y6BETx8UWQQlZw1pxrniWDk+jsztnPkhkIJPzVStatddd11r5iOLQf7Bd/gF0kFCCNVIDn30KUDnp8XoO9GTXHxVJUD/pu9CmWxaZcGrznSij7xOgzAwHOod73jHWmzx/dR8rbdl+REoZIogx1mQmVQ70/XXX98de+yxZcZyM9tzJoEjCRDJuvkc9bUKsJe85CXlia+vTiZYCGLdEhJ1r3qxTVbntmX5EEjwsyM7+VYQu/OJfsSCOBWwIZ7U4OIzT3nKUzqf/HA9147f1YUrFHLf2l/q9fUg5f9J9f/tc/8krTSzlWlhRVf6IE36ZT0Fhe3o7Bz7bauUeBcfbrmvOLDeltVAgE9sNS6ZDlJJrdK3q33uAVE+9alPLa99+jzBvvvu2wmKI488sjv99NPXPs/KUfxPILRl80CgJgGOpd/T50JSuIYskUxS+hJDqHJkqnaqBeOzFmbDVwvkM2q9/NV6cj7kfiFV5Gt7vUTkf67ver062e/6SVdccUV5cGp0C5npOKj2GZ1TuCBRSa1UX6trun5bVhOBqZApp+MI6U81rAm5eotD7hMFHlwJBDeUBIJt/23L5oFACAjxsSt/eN/73leGPOnqQZQhzdTabCNUJCS3H8EYSmVbbc8UdmZfUvjqPpDcgw+5D3/iS+kqsk2W9ZIpa7hu9LFt3XXtd19N+3PPPbcUFpr1hv+RexCRZj+dFBbR1ZAwXy7Vx9xPZjq4Z1uWHwH+sRUi3MjC4BxM4tBSHJqDxCnj3PI4Z/Zt5P7tv8uBgKCX+BO7yr/whS+UeR0QSIhUjnjUWHvJFOmmBidHqmp8hkypvX3xi18sZMrHMvKDL7lXyC5yrNe3/I8v19ezbh/S9uT+pJNOKm84IUMPzuiCUMkc4uzNFRiO12Tq21AKCtftldd2Ymc5LNykGIYAH5kKmcbx4tgJKA5RrzsvtQjntmXzQYCtU2O07kElwjPLl8HoyAWRIBTEgoTsS60UsSLTNJdDuv7j3Hvc4x7dgQceWPoo89ASwfGjEF22+dxG/Ash00Gy7lru6Wm7eXR9a4ycdFHLNFRQ853MvSSabceiN+KVfMnTkED3qJf6vr3H6vPa+vIgMDUyVVPQ/NK0c9E4ov3WOXdqrDmW85YHjibJRhBgVz6QWpac3b/yla+UvnSEGDJFLNblafKm5qbWaj01V+tqgM5FWGpzRx11VOlCcj8E2s+/yLOexf8UCgoD1+e33pU//vjjy6TNIVHy1ORPxlE1U/+JbvqT1bTdqyb+xAcSTVqPHu0/80VgKmRK5DiA3EUFEifPds7hNJyTA7USd77Gnsfd2Jz92VmyroD1iumee+65VntDKiFTpJlmv1qcY5ImPrKSO45IEa9cTVDyTr/Pe/hsjX5MfhffW69/+R8f9aSe3OYWTU3UPdUoFQwhRnqkeyK10H45PZ1LfiNf1HLrgiAxImZCoomrediu3WNjCEyFTEOYHCMlLGfIeu0c9ttuy+aHQAJfjtA4F1Jic4T6gQ98oHvgAx9YmschxZAqokkNFVFlPcSKgBCU/c5Vu0NM1hHcTjvtVN6cMruZWcY+//nPF4L1gcWQrAK8TmRT89TM1g/6pS99qcyX67tNxnx6vdnnQ0LiZKnJXi00tejII885IdTo4HxP/b3x58FcZIETjCzBMHHSYmV14qSQqZ+2NARmiYCC1Tv7p5xySvkIIsLUXEZGmseppSIjhGk/Ego5hZh6c+c43/9Te1Xr81KIGatMnOJh0dlnn12mkdR/6wORkhqt1ze9fHJ0QGG7AAAHe0lEQVTMMceUp+rIHuG5FvJz/5Bo7737bUdu/yWX/9pnXe3VWGsfgNSXDJP07crbstoINDJdbfutjPRqWAjDVI6ve93runvd616FYNQsQ5o1gSExyb5+pJV99X/zf3lqrQhbzVJXgVxC3uaGkPIgyPH06fpvrj9pHnno5Xp0sE6ObbfdtuieEQlqn1K6w1bGmE3Qvgg0Mu0LS9s5bQTUwtJXrklt7lJEhmQQUGpyqZWGGEeRWc5HWq4h+W/+b7/r5zrWU0tEcqnR2p9j9uf8SXPXoJNaaK5t3SfJFSL6dpGnbg8LXHSJpJk/bdzb9eaHQCPT+WG9Rd8JWSDTPHDxhP/EE0/s7nKXuxRyQ4IhPoRkPWkYoYU0e/8z6FrOk2ryru/tXo4Pu+ewY/6LPL29hUwlow98pVSfrH7SNO0FH1xst2b+6odHI9PVt+FKaKCZj0z1FXI6pKqGaiC+2cfUBhEj8rGODJGWfcPIK8dqclTzlGpCDYna55qp0dbEWa/nuuvJ6ZCa6f3ud78yRwFdUzNPLTR9pog0+1bCmE3Ivgg0Mu0LS9s5bQRCHEjUE3SOJxl+dM4555Svz3p1FNkhI4SH3KwPIzTEixhDlnUeYu4lZOe4DwK27vpy5/mP6w2757BjrqlfVn+p12DNfPW1r32tECkMJKRKdwWM5r7UntpP2+Pmf71GpvPHfIu9Y5r4iAOhIhb7kIvZoXyF1nvuvQQ5jLxCns5BkP6LEK3Xx3Lc/hzrvW7Ol/ceG7XtP7k/Ij3ssMPKQH9EScc05/WP0hsGmvxyNVMYtGW1EWhkutr22yykRzSIxZP+k08+uXzyJE/hQ3yDiK63dmnbf2ryrIkwpOe8/DfXznnZzrn1dq7vHpHN/xC40QHmEDB7GtKkk0KDfgINibZl80Wgkenma9uV0owjIh41OW8dHXrooeV9fg9yPPXXB6n5HQKsyTKk5rjz1E7TTeC8kGLOq8nRef4nD0FaR+a5hjy1ZedEFueoSXtpAImaZvJzn/tc0QFx0gmhpia6UgZpwk6MQCPTiSFrf5g2Apq6HFFKjQ4J+WS0uXE9xFHrS20yhBryVCtEeFKIMecgTus53rteE2xNvP7nP/W1Q6T2I1Gf3THI3yfQfZHUu/ya7Jr1dKFXSLXVSqftNct3vUamy2eTLU4izeA8lAmp2qeW6msM5g016bi3mryKadC9WqG+ScSG5EKs9qcWiTiTQpohTP/zH8dTU3VOUq5rG6G6rmRwv7eY9thjj+7lL395IfyvfvWrRf70/yJRybZCgS6SfW3ZfBFoZLr52nZlNEMydU1O7Q4JIVjJuvfrzbhvKJXXRB/2sIeVb4+FOEOCIU8EaR9SzD65fSHUmkRDrrkOopVsO89Ig1122aU74ogjynv7N910UyH7EKWcnJE7RBq95K12ujIuuS5BG5muC7b2p2kjEEJNE5ljWk8zOc1n41RNOO0Ddh706Kf0Vc/tt9++vFOf10JTk1SrDIkix3rb/uxDyvpC1XbVfDXhH/zgB5f5U73f7x3+a665pkwnqMaMNMlGbjn5kqJDjoVIbbdl80Wgkenma9uV0Syko3aHmKSsIy1OGiLKuc6x3+dwbr311vK5cJOX+M6Y5rfvjvkGma+cmpja7E++tXT3u9+95FtvvXXJfVb6IQ95SPn8iKFZxx13XLnGBRdc0F199dXl2sbCIkr3RJQW8oUkrUfeyE5OKftTMKyMUZqgEyPQyHRiyNofZoFAyLK+dsio95jt7AtZITvE6yGQafe8rupbZLfddlt3yy23lGn5TM2X9OlPf7qsO2a6Puf6zze/+c3ylpZrpYbpHrmn9SzZl2155Kr3Zf+gY73ntu3VRKCR6WrarUndEGgILBkCjUyXzCBNnIZAQ2A1EWhkupp2a1I3BBoCS4ZAI9MlM0gTpyHQEFhNBBqZrqbdmtQNgYbAkiHQyHTJDNLEaQg0BFYTgUamq2m3JnVDoCGwZAg0Ml0ygzRxGgINgdVEoJHpatqtSd0QaAgsGQKNTJfMIE2chkBDYDURaGS6mnZrUjcEGgJLhkAj0yUzSBOnIdAQWE0EGpmupt2a1A2BhsCSIdDIdMkM0sRpCDQEVhOBRqarabcmdUOgIbBkCDQyXTKDNHEaAg2B1USgkelq2q1J3RBoCCwZAo1Ml8wgTZyGQENgNRFoZLqadmtSNwQaAkuGQCPTJTNIE6ch0BBYTQQama6m3ZrUDYGGwJIh0Mh0yQzSxGkINARWE4FGpqtptyZ1Q6AhsGQINDJdMoM0cRoCDYHVRKCR6WrarUndEGgILBkCjUyXzCBNnIZAQ2A1EWhkupp2a1I3BBoCS4ZAI9MlM0gTpyHQEFhNBBqZrqbdmtQNgYbAkiHQyHTJDNLEaQg0BFYTgUamq2m3JnVDoCGwZAg0Ml0ygzRxGgINgdVEoJHpatqtSd0QaAgsGQKNTJfMIE2chkBDYDURaGS6mnZrUjcEGgJLhkAj0yUzSBOnIdAQWE0EGpmupt2a1A2BhsCSIVDI9Fvf+lZnpaWGQfOB5gPNB9bnA3j0/wHGbm9HTGWeNwAAAABJRU5ErkJggg==;" vertex="1" parent="1">
          <mxGeometry x="826.55" y="590" width="106.89" height="70" as="geometry" />
        </mxCell>
        <mxCell id="PFUlSl_77ustU3yYr6jG-25" value="" style="shape=image;html=1;verticalAlign=top;verticalLabelPosition=bottom;labelBackgroundColor=#ffffff;imageAspect=0;aspect=fixed;image=https://cdn0.iconfinder.com/data/icons/social-network-9/50/29-128.png" vertex="1" parent="1">
          <mxGeometry x="980" y="320" width="95" height="95" as="geometry" />
        </mxCell>
      </root>
    </mxGraphModel>
  </diagram>
</mxfile>
